<?xml version="1.0" encoding="utf-8"?>
<!-- Generator: Adobe Illustrator 19.1.0, SVG Export Plug-In . SVG Version: 6.00 Build 0)  -->
<svg version="1.1" id="Capa_1" xmlns="http://www.w3.org/2000/svg" xmlns:xlink="http://www.w3.org/1999/xlink" x="0px" y="0px"
	 viewBox="0 0 462.4 414.9" style="enable-background:new 0 0 462.4 414.9;" xml:space="preserve">
<g>
	<path d="M245.8,356.7c-86.2,0.8-154.2-80.6-155.9-163.5c-2.4-131.1,193.9-221,255.8-90.7C390.7,200.1,375.7,355.5,245.8,356.7z
		 M308.9,269.7c18.6,2.4,29.2-2.8,36-10.1c13.8-48.2,4.1-110.5-13.3-153c-38-93.1-226.3-42.5-225.4,85.8
		c0.4,79.3,62.3,144.5,139.6,147.8c44.1,2,74.1-23.9,90.2-57.5c-27.5,12.1-62.7-4.1-61.1-38.9c-28.3,35.2-87.4,42.5-103.2-13.3
		c-8.5-31.6,0.8-71.7,26.7-92.7c22.2-17.8,64.3-23.1,79.7,7.3c14.2,26.3,14.2,54.6,13,84.2C290.3,249.1,290.7,267.3,308.9,269.7z
		 M274.9,202.5c-0.4-30-3.7-57.5-29.1-61.9c-6.5-1.2-13-1.6-19.4,0c-40.9,11.3-59.9,84.2-21.9,108.9c30,19.4,67.6-13.3,69.6-44.5
		C274.1,204.1,274.5,203.4,274.9,202.5z"/>
</g>
</svg>
