<?xml version="1.0" encoding="utf-8"?>
<!-- Generator: Adobe Illustrator 19.1.0, SVG Export Plug-In . SVG Version: 6.00 Build 0)  -->
<svg version="1.1" id="Capa_1" xmlns="http://www.w3.org/2000/svg" xmlns:xlink="http://www.w3.org/1999/xlink" x="0px" y="0px"
	 viewBox="0 0 249 216" style="enable-background:new 0 0 249 216;" xml:space="preserve">
<g>
	<path d="M199,55.5H69.1L62.3,30c-0.5-1.9-2-3.3-3.9-3.7l-20.8-4.6c-2.8-0.6-5.6,1.1-6.2,3.9c-0.6,2.8,1.1,5.6,3.9,6.2l17.7,3.9
		L80,136.4c0.6,2.3,2.7,3.8,5,3.8h79.5l-4.5,11.5H85.4c-2.9,0-5.2,2.3-5.2,5.2s2.3,5.2,5.2,5.2h78.2c2.1,0,4.1-1.3,4.8-3.3l8.5-21.8
		c0.6-1.6,0.4-3.4-0.6-4.8c-1-1.4-2.6-2.3-4.3-2.3H89l-3.6-13.6h94c2.9,0,5.2-2.3,5.2-5.2c0-2.9-2.3-5.2-5.2-5.2H82.6l-4-14.8h110
		c2.9,0,5.2-2.3,5.2-5.2s-2.3-5.2-5.2-5.2H75.9l-4-14.8H199c2.9,0,5.2-2.3,5.2-5.2C204.2,57.9,201.9,55.5,199,55.5z"/>
	<circle cx="97.6" cy="179.5" r="9.7"/>
	<circle cx="154.7" cy="179.5" r="9.7"/>
</g>
</svg>
