<?xml version="1.0" encoding="utf-8"?>
<!-- Generator: Adobe Illustrator 19.1.0, SVG Export Plug-In . SVG Version: 6.00 Build 0)  -->
<svg version="1.1" id="Capa_1" xmlns="http://www.w3.org/2000/svg" xmlns:xlink="http://www.w3.org/1999/xlink" x="0px" y="0px"
	 viewBox="0 0 462.4 414.9" style="enable-background:new 0 0 462.4 414.9;" xml:space="preserve">
<g>
	<path d="M413,308.4V133.9c0-10.6-4.7-17-8.6-20.4c-10-8.8-24.8-8-28.4-7.6l-90.2-0.1l-39.5-37.9c1.9-2.9,3.1-6.3,3.1-10.1
		c0-10-8.1-18.1-18.1-18.1c-10,0-18.1,8.1-18.1,18.1c0,3.7,1.1,7.2,3.1,10.1l-39.4,37.9l-94.2-0.1c-11.7,0-20.6,3.4-26.5,10.1
		c-6.9,7.8-6.8,17.2-6.6,20.1v174.5c0,10.6,4.7,17,8.6,20.4c7.6,6.7,18,7.8,24.1,7.8c1.9,0,3.5-0.1,4.3-0.2l293.3,0.2
		c11.7,0,20.6-3.4,26.5-10.1C413.3,320.7,413.2,311.3,413,308.4z M220.6,72.3c3,2.2,6.6,3.5,10.6,3.5s7.6-1.3,10.6-3.5l34.8,33.4
		l-90.9-0.1L220.6,72.3z M392.2,316.2c-2.8,3-8.3,3.6-12.4,3.6L86,319.7l-1.1,0.1c-2.5,0.3-10.6,0.4-14.4-3c-1-0.9-2.2-2.4-2.2-6.4
		V135.4l-0.1-1c0,0-0.3-3.8,2.1-6.4c2.8-3,8.3-3.6,12.4-3.6l293.9,0.2l1.1-0.1c2.5-0.3,10.6-0.4,14.4,3c1,0.9,2.2,2.4,2.2,6.4v174.9
		l0.1,1C394.3,309.9,394.6,313.7,392.2,316.2z"/>
	<g>
		<polygon points="183.2,245.7 178.2,241.9 228.7,175.6 233.7,179.4 		"/>
	</g>
	<g>
		<polygon points="223.9,235.6 219.1,231.6 242,203.6 246.9,207.5 		"/>
	</g>
	<g>
		<rect x="248.9" y="169.1" transform="matrix(0.7938 0.6082 -0.6082 0.7938 189.653 -106.6351)" width="6.3" height="114.5"/>
	</g>
</g>
</svg>
