<?xml version="1.0" encoding="utf-8"?>
<!-- Generator: Adobe Illustrator 19.1.0, SVG Export Plug-In . SVG Version: 6.00 Build 0)  -->
<svg version="1.1" id="Capa_1" xmlns="http://www.w3.org/2000/svg" xmlns:xlink="http://www.w3.org/1999/xlink" x="0px" y="0px"
	 viewBox="0 0 462.4 414.9" style="enable-background:new 0 0 462.4 414.9;" xml:space="preserve">
<g>
	<g>
		<path d="M221.5,381.9C125.3,381.9,47,303.7,47,207.5C47,111.3,125.3,33,221.5,33c96.2,0,174.5,78.3,174.5,174.5
			C395.9,303.7,317.7,381.9,221.5,381.9z M221.5,49.4c-87.1,0-158,70.9-158,158c0,87.1,70.9,158,158,158s158-70.9,158-158
			C379.5,120.3,308.6,49.4,221.5,49.4z" style="fill:rgb(0,169,255)"/>
	</g>
	<path d="M225.7,140.5c2.3,0.2,5.4,2.5,5.8,4.8c0.5,4.1,3.5,6.8,7.5,6.5c4.3-0.3,7.9-4.1,7.9-8.4c0-5.1-2.8-10.1-7.7-13.7
		c-5.9-4.5-13.5-6.1-19.9-4.3c-11.2,3.4-15.3,24.7-14.4,75.4c-2.1,0-4.2,0-6.3,0c-4.4-0.1-8,3.2-8,7.6c0,4.2,3.3,7.4,7.6,7.4
		c2.4,0,4.7-0.1,7.1-0.2c0.3,8.6,0.7,17.2,1,25.4c0.9,20.2,1.7,37.6,0.9,45.6c-0.3,2.8,0.7,5.4,2.9,6.9c1.2,0.9,2.7,1.3,4.2,1.3
		c1.1,0,2.2-0.2,3.2-0.7c2.6-1.2,4.2-3.7,4.4-6.8c0.7-12.2,0.3-24.4-0.2-36.1c-0.2-5-0.4-9.9-0.5-15.1c-0.1-2.2-0.4-10.4-0.7-20.7
		c4.9,0.2,9.5,0.3,14.3,0.3c4.1,0,7.3-3.4,7.3-7.7c0-1.8-0.6-3.5-1.7-4.9c-1.3-1.6-3.3-2.5-5.5-2.5c-5.1,0-9.5-0.1-14.8-0.3
		C218.8,146.6,224.5,141.1,225.7,140.5z" style="fill:rgb(0,169,255)"/>
</g>
</svg>
