<?xml version="1.0" encoding="utf-8"?>
<!-- Generator: Adobe Illustrator 19.1.0, SVG Export Plug-In . SVG Version: 6.00 Build 0)  -->
<svg version="1.1" id="Capa_1" xmlns="http://www.w3.org/2000/svg" xmlns:xlink="http://www.w3.org/1999/xlink" x="0px" y="0px"
	 viewBox="0 0 462.4 414.9" style="enable-background:new 0 0 462.4 414.9;" xml:space="preserve">
<g>
	<path d="M230.7,19.8C126.7,19.8,42,104.5,42,208.5c0,104,84.6,188.7,188.7,188.7s188.7-84.7,188.7-188.7
		C419.4,104.5,334.8,19.8,230.7,19.8z M230.7,378.1c-93.5,0-169.6-76.1-169.6-169.6c0-93.5,76.1-169.6,169.6-169.6
		S400.3,115,400.3,208.5C400.3,302,324.3,378.1,230.7,378.1z"/>
	<path d="M144.6,199c0-9.8-7.9-17.7-17.7-17.7c-9.8,0-17.7,7.9-17.7,17.7s7.9,17.7,17.7,17.7C136.6,216.7,144.6,208.7,144.6,199z"/>
	<path d="M334.6,181.2c-9.8,0-17.7,7.9-17.7,17.7s7.9,17.7,17.7,17.7c9.8,0,17.7-7.9,17.7-17.7S344.4,181.2,334.6,181.2z"/>
	<path d="M340.1,249.2H121.4c-4,0-7,3.3-6.3,7c4.3,22.5,24.8,91.4,115.6,91.4c90.8,0,111.3-68.9,115.6-91.4
		C347,252.6,344.1,249.2,340.1,249.2z"/>
</g>
</svg>
