<?xml version="1.0" encoding="utf-8"?>
<!-- Generator: Adobe Illustrator 19.1.0, SVG Export Plug-In . SVG Version: 6.00 Build 0)  -->
<svg version="1.1" id="Capa_1" xmlns="http://www.w3.org/2000/svg" xmlns:xlink="http://www.w3.org/1999/xlink" x="0px" y="0px"
	 viewBox="0 0 462.4 414.9" style="enable-background:new 0 0 462.4 414.9;" xml:space="preserve">
<path d="M389.7,246.2c0-9.3-3.8-18.1-10.3-24.5c4.7-5.9,7.2-13.2,7.3-20.9c0.1-8.8-3.5-17.3-9.9-23.8c-6.7-6.8-16-10.7-25.4-10.7
	h-73.8l4.7-30.8c0.6-3.9,0.9-7.9,0.9-11.8c0-30.5-20.6-65.9-47.1-65.9c-7.7,0-15.1,2.7-21,7.6l-2.7,2.3l3.8,50.6
	c0.2,2.2,0,4.3-0.5,6.4c-0.5,2.1-1.3,4.1-2.5,5.9l-40.5,75.1l-1.6,1.3c-1-6.9-6.9-12.2-14-12.2H78.5c-7.8,0-14.2,6.4-14.2,14.2
	v148.3c0,7.8,6.4,14.2,14.2,14.2h78.6c7.8,0,14.2-6.4,14.2-14.2V350c0,0,0.1,0.1,0.1,0.1c14.5,12.3,33.2,12.5,34,12.5l118.1,0l0.4,0
	c18.1-1,32.3-16,32.3-34.2c0-2.7-0.3-5.4-1-8.1c12.4-5.3,20.7-17.5,20.7-31.5c0-4.6-0.9-9.1-2.7-13.3
	C383.4,269.4,389.7,258.4,389.7,246.2z M361.5,265.8l-9.4,2.9l5.9,7.8c2.7,3.6,4.1,7.8,4.1,12.3c0,10-7.2,18.5-17.1,20.1l-9.4,1.6
	l4.4,8.4c1.5,2.9,2.3,6.1,2.3,9.4c0,10.8-8.4,19.7-19.1,20.4l-117.9,0.1c-0.4,0-14.6-0.3-25.1-9.2c-2.3-1.9-4.3-3.3-6.5-4.3
	l-2.5-1.2v-109l12.3-10.5l41.5-76.9c1.8-3,3.2-6.3,4-9.7c0.8-3.5,1.1-7.1,0.9-10.7l-3.3-43.1c2.9-1.6,6.1-2.5,9.4-2.5
	c17.9,0,33.3,28.6,33.3,52c0,3.3-0.3,6.5-0.7,9.7l-7.2,46.7h89.9c5.8,0,11.4,2.4,15.6,6.6c3.9,3.9,6,8.9,5.9,14
	c0,6.4-3,12.3-8.1,16.1l-8.4,6.3l9.1,5.2c6.4,3.6,10.4,10.5,10.4,17.8C375.9,255.2,370.1,263.1,361.5,265.8z"/>
</svg>
