<?xml version="1.0" encoding="utf-8"?>
<!-- Generator: Adobe Illustrator 19.1.0, SVG Export Plug-In . SVG Version: 6.00 Build 0)  -->
<svg version="1.1" id="Capa_1" xmlns="http://www.w3.org/2000/svg" xmlns:xlink="http://www.w3.org/1999/xlink" x="0px" y="0px"
	 viewBox="0 0 462.4 414.9" style="enable-background:new 0 0 462.4 414.9;" xml:space="preserve">
<g>
	<path d="M314.6,200c0,5.2-0.5,10.5-1.6,15.5l3,0.6c1.1-5.3,1.6-10.7,1.6-16.2c0-38.4-27.3-71.5-65-78.7l-0.6,3
		C288.3,131.2,314.6,163.1,314.6,200z"/>
	<path d="M221.6,250.7c24.3,0,44.1-19.8,44.1-44.1c0-24.3-19.8-44.1-44.1-44.1c-24.3,0-44.1,19.8-44.1,44.1
		C177.6,230.9,197.3,250.7,221.6,250.7z M221.6,174.8c17.5,0,31.8,14.3,31.8,31.8c0,17.5-14.3,31.8-31.8,31.8s-31.8-14.3-31.8-31.8
		C189.8,189.1,204.1,174.8,221.6,174.8z"/>
	<path d="M262.8,140.6l-0.5,3c17.7,2.9,40.3,30.5,38.3,53.7l3.1,0.3C305.5,176.9,285.2,144.3,262.8,140.6z"/>
	<circle cx="221.7" cy="206.6" r="9.2"/>
	<path d="M383.9,33H59.4c-1.8,0-3.3,1.5-3.3,3.3v340.5c0,1.8,1.5,3.3,3.3,3.3h324.6c1.8,0,3.3-1.5,3.3-3.3V36.4
		C387.3,34.5,385.8,33,383.9,33z M380.6,373.6H62.7V39.7h317.9V373.6z"/>
	<path d="M115.5,101.3l13.6,13.6c-23.4,23.6-37.8,56-37.8,91.7c0,71.9,58.5,130.3,130.3,130.3c71.9,0,130.4-58.5,130.4-130.3
		S293.5,76.3,221.6,76.3c-34.5,0-65.8,13.5-89.1,35.5L118.8,98l7.9-7.9L94.4,57.9l-19,19l32.3,32.3L115.5,101.3z M221.6,88.5
		c65.1,0,118.1,53,118.1,118.1c0,65.1-53,118.1-118.1,118.1s-118.1-53-118.1-118.1c0-32.3,13.1-61.7,34.2-83l26.5,26.5l-3.5,3.5
		l8.7,8.7l1.8-1.8l2.6,2.6l6.8-6.8l-2.6-2.6l1.8-1.8l-8.7-8.7l-3.5,3.5l-26.4-26.4C162.3,100.7,190.6,88.5,221.6,88.5z"/>
</g>
</svg>
