<?xml version="1.0" encoding="utf-8"?>
<!-- Generator: Adobe Illustrator 19.1.0, SVG Export Plug-In . SVG Version: 6.00 Build 0)  -->
<svg version="1.1" id="Capa_1" xmlns="http://www.w3.org/2000/svg" xmlns:xlink="http://www.w3.org/1999/xlink" x="0px" y="0px"
	 viewBox="0 0 462.4 414.9" style="enable-background:new 0 0 462.4 414.9;" xml:space="preserve">
<path d="M166.2,110.6V312l-0.8,6.3c-3.1,14-15,27.6-31.2,35.6c-24.3,12.1-51.9,8.2-60.2-8.6c-3.8-7.6-3.2-17.1,1.6-26.8
	c5.4-10.8,15.3-20.2,27.9-26.5c10.4-5.2,21.9-7.7,32.3-7l0-0.1c0.4,0,0.9,0.1,1.3,0.1c6.9,0,12.5-5.6,12.5-12.5
	c0-6.8-5.4-12.3-12.2-12.5l0,0c-15-1-30.6,2.3-45.1,9.5c-17.4,8.6-31.3,22-39.1,37.7c-8.4,16.8-9,34.3-1.6,49.1
	C61,375.6,82,386,105.7,386c12.9,0,26.6-3.1,39.7-9.6c23.5-11.7,40.2-31.7,44.7-53.5l1.1-8.7l0.1-185.5l199.5-64.3v241l-0.1,5.2
	c-0.9,15.3-13.7,31.6-31.9,40.6c-12.6,6.3-26,8.5-37.9,6.3c-10.6-1.9-18.5-7.2-22.3-14.9c-3.8-7.6-3.2-17.1,1.6-26.8
	c5.4-10.8,15.3-20.2,27.9-26.5c9.2-4.6,19.1-6.9,28.5-7c0.2,0,0.3,0,0.5,0c6.9,0,12.5-5.6,12.5-12.5c0-6.7-5.3-12.2-12-12.5l0-0.1
	c-0.2,0-0.4,0-0.6,0c-13.4,0-27.2,3.4-40,9.7c-17.4,8.7-31.3,22-39.1,37.7c-8.4,16.8-9,34.3-1.6,49.1c7.4,14.9,21.7,24.9,40.2,28.3
	c17.2,3.2,36.2,0.2,53.6-8.5c26.6-13.2,44.5-37.6,45.8-62l0.1-281.6L166.2,110.6z"/>
</svg>
