<?xml version="1.0" encoding="utf-8"?>
<!-- Generator: Adobe Illustrator 19.1.0, SVG Export Plug-In . SVG Version: 6.00 Build 0)  -->
<svg version="1.1" id="Capa_1" xmlns="http://www.w3.org/2000/svg" xmlns:xlink="http://www.w3.org/1999/xlink" x="0px" y="0px"
	 viewBox="0 0 462.4 414.9" style="enable-background:new 0 0 462.4 414.9;" xml:space="preserve">
<g>
	<path d="M422.8,150.8c-18.8-18.8-43.5-28.3-68.2-28.3c-15.9,0-31.8,3.9-46.2,11.8C307.9,81.5,265,38.8,212,38.8
		c-49.1,0-89.6,36.7-95.6,84.1c-2.9-0.3-5.7-0.4-8.6-0.4v0c-24.7,0-49.4,9.4-68.2,28.3c-18.8,18.8-28.3,43.5-28.3,68.2
		c0,24.7,9.4,49.4,28.3,68.3c18.8,18.8,43.5,28.3,68.2,28.2h246.9c26.6,0,50.8-10.8,68.2-28.2c18.8-18.8,28.3-43.6,28.3-68.3
		C451.1,194.3,441.6,169.6,422.8,150.8z M410.9,275.4c-14.5,14.4-34.3,23.3-56.3,23.3H107.8c-20.4,0-40.8-7.8-56.3-23.3
		c-15.6-15.6-23.3-35.9-23.3-56.4c0-20.4,7.8-40.7,23.3-56.3c15.6-15.6,35.9-23.3,56.4-23.3c20.4,0,40.8,7.8,56.3,23.3l11.9-11.9
		c-12.4-12.4-27.3-20.7-43.1-24.9c4.7-39.6,38.3-70.2,79.1-70.3c44,0.1,79.6,35.7,79.7,79.7c0,3.9-0.3,7.6-0.8,11.3
		c-1.5,1.3-3,2.7-4.5,4.2l11.9,11.9c15.6-15.6,35.9-23.3,56.4-23.3c20.4,0,40.7,7.8,56.3,23.3c15.6,15.6,23.3,35.9,23.3,56.3
		C434.3,239.4,426.5,259.8,410.9,275.4z"/>
	<path d="M231.3,70.9c-2.6-0.8-5.4,0.7-6.1,3.3c-0.8,2.6,0.7,5.4,3.3,6.2c1,0.3,24.1,7.6,31.9,34.8c0.6,2.2,2.6,3.6,4.8,3.6
		c0.5,0,0.9-0.1,1.4-0.2c2.6-0.8,4.1-3.5,3.4-6.1C260.5,80,232.5,71.3,231.3,70.9z"/>
</g>
</svg>
