<?xml version="1.0" encoding="utf-8"?>
<!-- Generator: Adobe Illustrator 19.1.0, SVG Export Plug-In . SVG Version: 6.00 Build 0)  -->
<svg version="1.1" id="Capa_1" xmlns="http://www.w3.org/2000/svg" xmlns:xlink="http://www.w3.org/1999/xlink" x="0px" y="0px"
	 viewBox="0 0 462.4 414.9" style="enable-background:new 0 0 462.4 414.9;" xml:space="preserve">
<g>
	<path d="M379.7,239.1c0,0.3-0.1,0.5-0.1,0.8c0,0.2,0,0.4,0,0.6L379.7,239.1z"/>
	<path d="M378.1,211.4c-1.6-9.4-5.3-18.4-9.4-26.9c-2.4-4.1-4.8-8.2-7.5-12.1c-3-3.6-5.9-7.5-9.1-10.9l-10.3-9.6l-3.7-2.6l46.3-51.1
		l-15-13.6l-48.8,53.8c-0.8-0.4-1.6-0.8-2.4-1.2l-6.1-3.2l-6.4-2.5l-12.8-4.8l-13.3-3.5c-8.5-2.5-16.7-3.5-25-4.8l12-76.7l-20.1-3.1
		L234.3,116l-8-0.5c-9-0.9-18,0-27,0.2c-9,0-17.9,2.2-26.8,3.1c-1.6,0.4-3.2,0.7-4.8,1.1l-44.5-68.5l-17,11.1l40.8,62.9
		c-0.2,0.1-0.4,0.1-0.6,0.2l-12.7,4.5c-4.2,1.6-8.2,3.7-12.3,5.5c-4.1,1.8-8.1,3.9-11.9,6.3c-3.8,2.4-7.9,4.3-11.4,7
		c-3.6,2.6-7.4,5.1-10.9,7.8l-10.3,8.6c-6.5,6.1-12.8,12.4-18.4,19.4c-5.7,6.9-10.8,14.1-15.1,22l1.8,1c4.5-7.5,9.8-14.5,15.7-21
		c5.8-6.6,12.2-12.5,18.8-18.3l10.3-8c3.5-2.5,7.3-4.8,10.9-7.2c3.5-2.5,7.6-4.3,11.4-6.4c3.8-2.2,7.7-4.1,11.7-5.6
		c4-1.6,7.9-3.5,12-4.9l12.4-3.9c8.3-2.5,16.9-3.9,25.4-5.4c8.6-0.6,17.2-2.4,25.9-2c8.7,0.1,17.3-0.4,25.9,0.8l12.9,1.2l3.2,0.3
		l0.8,0.1c0,0,0.5,0.1,0.2,0l0.4,0.1l1.6,0.3l6.5,1.2c8.7,1.6,17.5,2.9,25.5,5.6L289,138l11.8,4.9l5.9,2.4l5.5,3.1
		c3.6,2.2,7.5,3.9,10.8,6.4l10,7.5l8.8,8.7c2.7,3.1,5,6.5,7.6,9.6c2.2,3.4,4.1,7,6.1,10.5c3.2,7.4,6.2,15,7.3,23.1
		c1.3,7.8,1.7,16.5,0.6,23.5l-0.1,0.4l-0.1,1c-0.5,7.1-2.2,15.6-4.9,22.9c-2.9,7.4-6.2,14.7-11,20.8c-2,3.4-5.1,5.9-7.5,8.9
		c-2.9,2.5-5.8,5.2-8.9,7.5c-6.4,4.4-13.3,8-20.7,10.7c-3.8,1.1-7.5,2.5-11.4,3.5l-11.9,2.1c-3.9,0.8-8.1,0.6-12.2,1l-6.1,0.4
		l-0.6,0l-0.3,0l-1.6-0.1l-3.3-0.1l-13.1-0.5l-11.4-2.1c-3.8-0.4-7.6-1.7-11.5-3c-3.8-1.4-7.8-2.1-11.4-4l-11-5
		c-3.5-2-6.9-4.2-10.4-6.3c-3.6-1.9-6.6-4.7-9.8-7.2c-3.2-2.6-6.5-5-9.3-8c-2.9-2.9-5.9-5.7-8.7-8.8l-7.7-9.7
		c-2.6-3.2-4.5-6.9-6.9-10.3c-2.4-3.4-4.4-7.1-6.2-10.8c-4.1-7.3-6.8-15.2-9.7-23.1l-3.1-12.2c-1.1-4.1-1.2-8.3-2-12.5
		c-0.9-4.2-0.9-8.4-1-12.6c-0.1-4.2-0.4-8.5,0.3-12.7c0.5-8.6,2.5-16.9,4.5-25.4l-1.9-0.7l-5,12.3c-1.7,4.1-2.2,8.6-3.4,12.9
		c-1.3,4.4-1.6,8.8-2,13.3c-0.5,4.5-1,9-0.7,13.5c0.2,4.5,0.1,9.1,0.8,13.6l2.1,13.5c2.3,8.8,4.4,17.7,8.2,26
		c1.6,4.3,3.4,8.5,5.7,12.5c2.2,4,4.2,8.2,6.8,12l7.9,11.3c2.8,3.6,6.1,7,9.1,10.5c2.9,3.6,6.5,6.6,10,9.6c3.5,3,6.9,6.3,10.9,8.7
		c3.9,2.6,7.7,5.3,11.7,7.8l12.5,6.4c4.1,2.3,8.8,3.3,13.2,5c4.4,1.5,8.9,3.1,13.8,3.8l14.4,2.6l13.1,0.7l3.3,0.2l1.6,0.1l1.5,0
		l0.9-0.1l6.9-0.6c4.6-0.5,9.2-0.5,13.9-1.5l13.8-2.8c4.6-1.3,9.1-3,13.6-4.5c8.9-3.6,17.4-8.3,25.1-14.2c3.8-3,7.3-6.4,10.8-9.8
		c3-3.8,6.5-7.2,9-11.4c5.7-7.9,9.4-16.8,12.4-25.8c2.8-8.9,4.5-17.6,4.8-27.6C380.7,229.6,379.9,220.7,378.1,211.4z"/>
	<circle cx="245.8" cy="215.7" r="30.9"/>
</g>
</svg>
