<?xml version="1.0" encoding="utf-8"?>
<!-- Generator: Adobe Illustrator 19.1.0, SVG Export Plug-In . SVG Version: 6.00 Build 0)  -->
<svg version="1.1" id="Capa_1" xmlns="http://www.w3.org/2000/svg" xmlns:xlink="http://www.w3.org/1999/xlink" x="0px" y="0px"
	 viewBox="0 0 462.4 414.9" style="enable-background:new 0 0 462.4 414.9;" xml:space="preserve">
<g>
	<g>
		<path d="M231.9,381.6c-101,0-183.2-82.2-183.2-183.2c0-101,82.2-183.2,183.2-183.2c101,0,183.2,82.2,183.2,183.2
			C415.1,299.4,332.9,381.6,231.9,381.6z M231.9,32.5C140.5,32.5,66,106.9,66,198.4c0,91.5,74.4,165.9,165.9,165.9
			s165.9-74.4,165.9-165.9C397.8,106.9,323.4,32.5,231.9,32.5z" style="fill:rgb(0,169,255)"/>
	</g>
	<g id="Forma_1_2_">
		<g>
			<path d="M279.4,133.6c-11.3-10.8-26.8-16.8-43.8-16.8c-25.8,0-41.8,10.6-50.6,19.6c-10.9,11-17.2,25.7-17.2,40.2
				c0,18.5,7.8,32.7,21,38c2.3,0.9,4.6,0.9,6.6-0.1c2-1,3.4-2.8,4-5.2c0.2-0.8,0.5-2.1,0.9-3.4c0.4-1.4,0.7-2.8,0.9-3.7
				c1.1-4.1,0.1-6.4-2.2-9.1c-3.2-3.8-4.8-8.4-4.8-14.4c0-10,3.7-19.4,10.4-26.4c7.2-7.5,17.1-11.4,28.5-11.4
				c19.9,0,32.2,11.2,32.2,29.3c0,23.8-10.3,42.4-23.5,42.4c-3.3,0-6.2-1.3-8-3.6c-1.7-2.1-2.2-4.9-1.5-7.8c0.9-3.9,2.2-8,3.4-12
				c2.3-7.5,4.5-14.6,4.5-20.5c0-10.7-6.6-17.8-16.5-17.8c-12.1,0-21.6,12.1-21.6,27.5c0,6.7,1.6,11.9,2.6,14.4
				c-1.7,7.4-9.5,40.3-11,46.7c-3,12.6-1.5,27.3-0.4,35l0,0.3c0.3,2.3,1.9,4.1,4.2,4.7c0.5,0.1,1,0.2,1.5,0.2c1.8,0,3.5-0.8,4.6-2.3
				l0.2-0.2c3.8-4.9,13.1-17.5,16.6-30.3c0.6-2.3,2.6-10,4.2-16.2c5.2,3.8,12.2,6.2,19.2,6.2c15.1,0,28.6-6.8,38.1-19.1
				c9.1-11.8,14.2-28.2,14.2-46.1C296.1,157.9,290,143.8,279.4,133.6z M274.7,212.6c-7.9,10.1-18.5,15.5-30.9,15.5
				c-8.1,0-15.4-4.4-17.5-8.6c-0.9-1.7-2.7-2.6-4.6-2.4c-1.9,0.2-3.4,1.6-3.9,3.4c-0.1,0.2-5.1,20.4-6.2,24.2
				c-2,7.4-6.4,14.9-10.1,20.4c-0.7-8.9-0.3-17.1,1.2-23.3c1.7-7.2,11.4-48.2,11.4-48.2c0.2-1,0.1-2.1-0.4-3.1c0,0-2.4-4.9-2.4-12
				c0-10.3,5.5-18.3,12.5-18.3c6.4,0,7.3,5.4,7.3,8.7c0,4.5-2,10.9-4.1,17.8c-1.3,4.1-2.6,8.4-3.6,12.5c-1.3,5.7-0.2,11.2,3.3,15.6
				c3.6,4.5,9.1,7.1,15.1,7.1c9.6,0,18.3-5.8,24.3-16.2c5.4-9.4,8.3-21.9,8.3-35.3c0-11.1-3.8-20.6-10.9-27.5
				c-7.4-7.2-17.9-11-30.5-11c-13.8,0-26.3,5-35.1,14.2c-8.4,8.7-13,20.3-13,32.7c0,8.2,2.3,14.8,6.9,20.3c0.2,0.2,0.3,0.4,0.4,0.5
				c0,0.1,0,0.2-0.1,0.3c-0.2,0.9-0.6,2.3-1,3.8c-0.2,0.6-0.3,1.3-0.5,1.9c-8.9-4.4-13.9-14.8-13.9-28.9c0-12.1,5.3-24.5,14.5-33.8
				c7.6-7.7,21.4-16.8,44.1-16.8c14.6,0,27.9,5,37.5,14.2c8.8,8.5,13.9,20.1,13.9,31.9C286.9,188,282.6,202.4,274.7,212.6z" style="fill:rgb(0,169,255)"/>
		</g>
	</g>
</g>
</svg>
