<?xml version="1.0" encoding="utf-8"?>
<!-- Generator: Adobe Illustrator 19.1.0, SVG Export Plug-In . SVG Version: 6.00 Build 0)  -->
<svg version="1.1" id="Capa_1" xmlns="http://www.w3.org/2000/svg" xmlns:xlink="http://www.w3.org/1999/xlink" x="0px" y="0px"
	 viewBox="0 0 462.4 414.9" style="enable-background:new 0 0 462.4 414.9;" xml:space="preserve">
<g>
	<path d="M234.3,125.6L234.3,125.6L234.3,125.6L234.3,125.6z M235.5,125.2c1.2-0.4,2.5-1.2,3.7-1.6v-0.4
		C237.5,124,236.3,124.8,235.5,125.2z M239.2,117C239.2,117,239.2,117.4,239.2,117L239.2,117L239.2,117z M233,110.1h-2
		c1.2,0,2,0.4,3.3,0.8C233.8,110.5,233.4,110.1,233,110.1z M227.7,125.6L227.7,125.6L227.7,125.6L227.7,125.6z M222.8,122.8v0.4
		c1.2,0.8,2.5,1.2,3.7,1.6C226.1,124.8,224.4,124,222.8,122.8z M222.8,117.4L222.8,117.4C222.8,117.4,222.8,117,222.8,117.4
		C222.8,117,222.8,117,222.8,117.4z"/>
	<path d="M379.4,110.1H267C336.9,79,379.4,79.8,379.8,79.8c4.5,0,8.2-3.3,8.6-7.8c0-4.5-3.3-8.2-7.8-8.6c-1.6,0-34.8-0.8-90,19.6
		c14.3-14.7,21.3-27.4,21.3-38.4c0-7-3.3-16.4-15.9-23.3c-5.7-2.9-11-4.5-16.8-4.5c-25.4,0-39.7,32.3-47.4,60.1
		c-8.6-28.2-23.3-60.1-48.3-60.1c-5.3,0-11,1.6-16.8,4.5c-12.7,7-15.9,16.4-15.9,23.3c-0.4,11,6.5,23.7,21.3,38.4
		c-55.6-20.4-88.3-19.6-90-19.6c-4.5,0-8.2,4.1-7.8,8.6c0,4.5,4.1,8.2,8.6,7.8c0.4,0,42.5-0.8,112.9,30.3H83
		c-15.9,0-28.6,12.7-28.6,28.6v37.6c0,15.9,12.7,28.6,28.6,28.6h10.2v162.3c0,18,14.7,32.7,32.7,32.7h202.4
		c18,0,32.7-14.7,32.7-32.7V204.9h18.4c15.9,0,28.6-12.7,28.6-28.6v-37.6C408,122.8,395,110.1,379.4,110.1z M278.4,33.2
		c2.9,0,5.7,0.8,9,2.5c7.4,4.1,7.4,7.8,7.4,9c0.4,14.3-27,38.4-52.7,56.4C248.2,71.6,260.8,33.2,278.4,33.2z M239.2,117.4
		L239.2,117.4C239.2,117.4,239.2,117,239.2,117.4C239.2,117,239.2,117,239.2,117.4z M222.8,117.4C222.8,117,222.8,117,222.8,117.4
		C222.8,117,222.8,117.4,222.8,117.4L222.8,117.4z M167.2,44.7c0-1.2,0-5.3,7.4-9c3.3-1.6,6.1-2.5,9-2.5c18,0,30.7,38.8,36.4,68.3
		C194.2,83.5,166.8,59,167.2,44.7z M222.8,383.2h-96.9c-9,0-16.4-7.4-16.4-16.4V204.9h113.7v178.3H222.8z M222.8,188.6H83
		c-6.5,0-12.3-5.3-12.3-12.3v-37.6c0-7,5.7-12.3,12.3-12.3h139.8V188.6z M234.3,125.6L234.3,125.6 M344.7,366.9
		c0,9-7.4,16.4-16.4,16.4h-89.1V204.9h105.5V366.9z M391.7,176.3c0,7-5.3,12.3-12.3,12.3H239.2v-62.2h140.3c7,0,12.3,5.3,12.3,12.3
		V176.3z"/>
</g>
</svg>
