<?xml version="1.0" encoding="utf-8"?>
<!-- Generator: Adobe Illustrator 19.1.0, SVG Export Plug-In . SVG Version: 6.00 Build 0)  -->
<svg version="1.1" id="Capa_1" xmlns="http://www.w3.org/2000/svg" xmlns:xlink="http://www.w3.org/1999/xlink" x="0px" y="0px"
	 viewBox="0 0 462.4 414.9" style="enable-background:new 0 0 462.4 414.9;" xml:space="preserve">
<g>
	<path d="M238.5,16C133,16,47.1,101.9,47.1,207.5S133,398.9,238.5,398.9C344.1,398.9,430,313,430,207.5S344.1,16,238.5,16z
		 M238.5,380.8c-95.6,0-173.4-77.8-173.4-173.4c0-95.6,77.8-173.4,173.4-173.4c95.6,0,173.4,77.8,173.4,173.4
		C411.9,303.1,334.1,380.8,238.5,380.8z"/>
	<path d="M335.9,243.5c-11.6-0.6-20-12.5-28.8-25.1c-2-2.8-4-5.6-6-8.3c-1.5-1.9-1.7-3-1.8-3c1.1-1.3,6.3-2.7,9.2-3.5
		c4.7-1.3,9.2-2.5,11.9-5.2c3-3,4.3-6.6,3.7-10.2c-1-6.2-7-9.9-9.6-11.1c-4.2-2.1-8.5-0.5-12,0.9c-1.3,0.5-2.7,1-4.1,1.3v-34.6
		c0-8.8-9.3-21.5-14.8-28.3c-11-13.4-49.9-28.1-78-10.9c-28.8,17.6-27,41.2-26.9,41.6v31.2c-1.4,1.5-1.9,1.2-4.4,0
		c-3.3-1.6-8.2-4-14.6-1.4c-7.5,3-8.1,8.4-8.1,10.5c0.2,6.7,7.4,13,19.2,17c2.2,0.7,3.6,1.7,4.1,3c0.9,2.1-0.4,5.3-1.1,6.7
		c-9.8,22.1-26,28.9-29.4,30.1c-3.5,0.1-10.2,1-13.3,5.5c-1.7,2.5-2,5.6-0.9,8.7c3,7.9,14.2,9.3,23.2,10.4c2.2,0.3,4.1,0.5,4.5,0.4
		c1.1,1.1,2.5,6.5,2.8,11.1l0.5,6.5l11.2-2.1c14.5-2.9,14.5-2.8,35.3,8.1l6.4,3.4c8.1,4.3,15.7,5.9,22.7,5.9
		c16.8,0,29.8-9.7,37.2-15.1c1.9-1.4,4.2-3.1,5-3.4c4.2-1.4,20.3-0.7,30.4,0.3l4.9,0.5l3.6-13.3c12.6-1.6,29.3-9.5,29.6-18.3
		C347.6,249.9,346.6,244.1,335.9,243.5z M313.4,259.4h-4.4l-3.3,12.2c-8.4-0.6-24-1.4-30.3,0.7c-2.4,0.8-4.9,2.6-8.3,5.1
		c-10.4,7.7-26.1,19.5-47.5,8.3l-6.4-3.4c-15.4-8.1-21.1-11.1-28.8-11.1c-3.5,0-7.4,0.6-12.8,1.6c-1.2-6-3.8-13.1-9.7-14.7
		c-1.6-0.4-4.1-0.8-6.9-1.1c-2-0.3-5.9-0.8-9.1-1.4l1.2-0.2c1-0.3,24.5-7.2,37.3-36.4c0.5-0.9,4.4-8.5,1.5-16
		c-1.2-3.2-4.2-7.4-11.2-9.8c-5.8-1.9-9.1-4.2-10.6-5.7c0,0,0.1,0,0.1-0.1c1.5-0.6,2.3-0.3,5,1.1c4,2,11.5,5.7,19.9-4.6l1.3-1.6
		l0-35.8c-0.1-0.7-1-17.6,21.4-31.3c22.9-14,55.4-0.9,62.9,8.4c9,10.9,12.2,18.5,12.2,20.9v34.1c-0.9,1.8-1.3,4.1-0.4,6.5
		c0.8,2.2,2.9,4.9,8.3,5.8c4.7,0.6,8.8-0.9,12.1-2.1c1.1-0.4,2.8-1.1,2.6-1.3c2,1,3.1,2.3,2.9,2.7c-0.9,0.7-4.4,1.7-6.8,2.3
		c-6.9,1.9-14.8,4-17.1,10.8c-1.4,4.2-0.3,8.8,3.5,13.8c1.9,2.6,3.9,5.3,5.8,8c9.2,13,18.6,26.4,33.2,29.4
		C326.2,257,319.4,259.4,313.4,259.4z"/>
</g>
</svg>
