<?xml version="1.0" encoding="utf-8"?>
<!-- Generator: Adobe Illustrator 19.1.0, SVG Export Plug-In . SVG Version: 6.00 Build 0)  -->
<svg version="1.1" id="Capa_1" xmlns="http://www.w3.org/2000/svg" xmlns:xlink="http://www.w3.org/1999/xlink" x="0px" y="0px"
	 viewBox="0 0 462.4 414.9" style="enable-background:new 0 0 462.4 414.9;" xml:space="preserve">
<g>
	<g>
		<path d="M219,376c-99.2,0-179.9-80.7-179.9-179.9c0-99.2,80.7-179.9,179.9-179.9s179.9,80.7,179.9,179.9
			C398.9,295.3,318.2,376,219,376z M219,33.2c-89.8,0-162.9,73.1-162.9,162.9S129.2,359.1,219,359.1c89.8,0,162.9-73.1,162.9-162.9
			S308.9,33.2,219,33.2z" style="fill:rgb(0,169,255)"/>
	</g>
	<g>
		<path d="M188.5,271.3c-34.5,0-58.9-17-59.2-17.2c-1.7-1.2-2.2-3.4-1.4-5.2c0.9-1.8,2.9-2.8,4.9-2.3c16.7,4.2,31.6-1.5,40.9-6.8
			c-16.5-4.8-31.3-23-32.1-24c-1.3-1.6-1.3-3.8,0-5.4c1.3-1.6,3.5-2,5.2-1.1c1.2,0.6,2.6,1,4.2,1.1c-16.6-11.2-23-37.9-23.3-39.4
			c-0.4-1.9,0.5-3.8,2.2-4.7c1.7-0.9,3.8-0.5,5.1,1c2.3,2.6,5,4.4,7.7,5.6c-15.1-20.7-1.5-42-1.3-42.3c0.7-1.1,1.9-1.8,3.3-1.9
			c1.3-0.1,2.6,0.4,3.5,1.4c25.5,29.3,53.9,34.3,64.9,35.1c-0.9-12,2.5-30.6,21.2-39.9c22.1-11,41,1.3,47.1,6.2l18-6.4
			c1.8-0.6,3.8,0,4.9,1.5c1.1,1.5,1,3.6-0.2,5.1L297,140l8.5-1.6c1.8-0.3,3.6,0.5,4.5,2.1c0.9,1.6,0.7,3.6-0.6,4.9l-15.9,17.5
			c1.2,9.7,3.1,49.7-37.1,84.5C232.1,265.5,208.5,271.3,188.5,271.3z M151.4,256c21,8.3,58.8,15.2,99.7-15.2
			c41.1-35.6,34.1-76.8,33.8-78.5c-0.2-1.3,0.1-2.7,1-3.6l8.7-9.6l-7.3,1.4c-1.7,0.3-3.5-0.5-4.4-2c-0.9-1.5-0.8-3.5,0.3-4.8
			l4.5-5.6l-6.2,2.2c-1.5,0.6-3.2,0.2-4.4-1c-0.7-0.7-18.1-17.1-39.4-6.4c-21.3,10.6-16,35.5-15.9,35.8c0.3,1.2,0,2.5-0.7,3.5
			c-0.7,1-1.9,1.6-3.1,1.7c-1.6,0.1-38.2,2-72.2-33.5c-2.8,7.7-5.1,22.8,12,36c1.4,1.1,2,2.9,1.5,4.6c-0.5,1.7-2,2.9-3.8,3
			c-0.5,0-7.8,0.4-15.8-3c4.7,11.5,14.1,27.2,28.6,25.8c2.1-0.1,4,1.1,4.5,3.2c0.5,2-0.5,4.1-2.4,4.9c-1.1,0.5-7.4,3.2-14.6,3.9
			c8.3,7.7,20.1,16,29.3,13c1.9-0.6,4,0.2,5,1.9c1,1.7,0.7,3.9-0.8,5.3C188.6,239.7,173.2,253.5,151.4,256z" style="fill:rgb(0,169,255)"/>
	</g>
</g>
</svg>
