<?xml version="1.0" encoding="utf-8"?>
<!-- Generator: Adobe Illustrator 19.1.0, SVG Export Plug-In . SVG Version: 6.00 Build 0)  -->
<svg version="1.1" id="Capa_1" xmlns="http://www.w3.org/2000/svg" xmlns:xlink="http://www.w3.org/1999/xlink" x="0px" y="0px"
	 viewBox="0 0 462.4 414.9" style="enable-background:new 0 0 462.4 414.9;" xml:space="preserve">
<g>
	<path d="M233.6,370.7c-46.7,0-93.4,0-140.2,0c-14.2,0-27.8-1.9-38.9-11.9c-11.3-10.1-17.5-22.5-17.5-37.7c0-78.7,0-157.4,0-236
		c0-21.9,16.2-42.6,37.3-47c6.6-1.4,13.6-1.6,20.4-1.6c95.3,0,190.7,0.1,286,0.2c26.1,0,46.1,18,48.9,43.9c0.4,3.7,0.7,7.3,0.7,11
		c0,76.2,0.1,152.4,0,228.7c0,23.1-15.2,43-37.2,48.5c-4.8,1.2-10,1.5-15,1.5c-48.2,0.1-96.4,0.1-144.7,0.1
		C233.6,370.4,233.6,370.6,233.6,370.7z M56.8,116.4c0,2,0,3.6,0,5.1c0,23.1,0,46.2,0,69.3c0,32.8,0,65.5,0,98.3
		c0,10.5-0.4,21.1,0.2,31.6c0.9,14.4,10.6,25.8,24.6,28.9c7.1,1.6,14.6,2,22,2c89,0.1,178,0.1,267.1,0.1c3,0,6.1-0.1,9.1-0.3
		c14.5-1.1,26.6-11.4,29.6-25.6c0.9-4.5,1.1-9.2,1.1-13.8c0.1-63.8,0.1-127.6,0-191.4c0-1.4-0.1-2.8-0.2-4.2
		C292.5,116.4,175,116.4,56.8,116.4z M411.3,102.9c-0.7-8-0.3-15.8-2.1-23c-3.9-15.2-17.7-24.5-34.7-24.5
		c-93.9,0-187.8-0.1-281.7-0.1c-24.7,0-40.4,19.6-35.2,47.6C175,102.9,292.5,102.9,411.3,102.9z"/>
	<path d="M125.3,69.7c6.2,0,11,4.9,10.9,11.1c-0.1,6-4.9,10.7-11,10.7c-6.1,0-11.2-5.1-11-11.1C114.4,74.4,119.3,69.7,125.3,69.7z"
		/>
	<path d="M88.8,69.7c5.9,0.1,10.9,4.9,10.9,10.8c0,6-5.1,11-11.2,11c-6-0.1-10.8-4.8-10.8-10.8C77.6,74.5,82.5,69.7,88.8,69.7z"/>
	<path d="M172.8,80.7c-0.1,6.1-4.7,10.8-10.8,10.8c-6.1,0-11.1-5-11.1-11c0.1-6.1,5.1-10.9,11.3-10.7
		C168.3,69.9,172.9,74.6,172.8,80.7z"/>
	<path d="M381.4,81l6.2-6.2c1.1-1.1,1.1-2.8,0-3.9c-1.1-1.1-2.8-1.1-3.9,0l-6.2,6.2l-6.2-6.2c-1.1-1.1-2.8-1.1-3.9,0
		c-1.1,1.1-1.1,2.8,0,3.9l6.2,6.2l-6.2,6.2c-1.1,1.1-1.1,2.8,0,3.9c0.5,0.5,1.3,0.8,2,0.8c0.7,0,1.4-0.3,2-0.8l6.2-6.2l6.2,6.2
		c0.5,0.5,1.3,0.8,2,0.8c0.7,0,1.4-0.3,2-0.8c1.1-1.1,1.1-2.8,0-3.9L381.4,81z"/>
</g>
</svg>
