<?xml version="1.0" encoding="utf-8"?>
<!-- Generator: Adobe Illustrator 19.1.0, SVG Export Plug-In . SVG Version: 6.00 Build 0)  -->
<svg version="1.1" id="Capa_1" xmlns="http://www.w3.org/2000/svg" xmlns:xlink="http://www.w3.org/1999/xlink" x="0px" y="0px"
	 viewBox="0 0 462.4 414.9" style="enable-background:new 0 0 462.4 414.9;" xml:space="preserve">
<g>
	<path d="M439,177.1c-44.3-68-116.5-105.7-204-105.7c-87.6,0-160.3,37.7-204,105.7c-2.3,3.3-1.4,7.9,1.9,9.8
		c3.3,2.3,7.9,1.4,9.8-1.9c41-63.8,109.5-99.2,191.9-99.2c82.5,0,150.9,34.9,191.9,98.8c1.4,2.3,3.7,3.3,6.1,3.3
		c1.4,0,2.8,0,4.7-0.9C439.9,184.6,440.9,180.4,439,177.1z"/>
	<path d="M234.5,153.4c-60.6,0-110.9,26.1-141.2,73.1c-2.3,3.3-1.4,7.9,1.9,9.8c0.9,0.5,2.3,0.9,3.7,0.9c2.3,0,4.7-0.9,6.1-3.3
		c28-42.9,73.6-66.6,129.5-66.6c55.9,0,101.6,23.8,129.5,67.1c2.3,2.8,6.5,3.7,9.8,1.9c2.8-2.3,3.7-6.5,1.9-9.8
		C345.4,179.4,295.1,153.4,234.5,153.4z"/>
	<path d="M235,233.5c-35.9,0-65.2,15.4-82.9,42.9c-2.3,3.3-1.4,7.9,1.9,9.8c3.3,2.3,7.9,1.4,9.8-1.9c14.9-23.3,40.1-36.3,70.8-36.3
		c30.3,0,55.4,12.6,70.8,36.3c1.4,2.3,3.7,3.3,6.1,3.3c1.4,0,2.8-0.5,4.7-1.4c2.8-2.3,3.7-6.5,1.9-9.8
		C299.7,248.9,270.4,233.5,235,233.5z"/>
	<path d="M232.6,288.9c-18.6,0-33.5,14.9-33.5,33.5c0,18.6,14.9,33.5,33.5,33.5c18.2,0,33.5-14.9,33.5-33.5
		C266.2,303.8,251.3,288.9,232.6,288.9z M232.6,342c-10.7,0-19.6-8.9-19.6-19.6c0-10.7,8.9-19.6,19.6-19.6
		c10.7,0,19.6,8.9,19.6,19.6C252.2,333.2,243.4,342,232.6,342z"/>
</g>
</svg>
