<?xml version="1.0" encoding="utf-8"?>
<!-- Generator: Adobe Illustrator 19.1.0, SVG Export Plug-In . SVG Version: 6.00 Build 0)  -->
<svg version="1.1" id="Layer_1" xmlns="http://www.w3.org/2000/svg" xmlns:xlink="http://www.w3.org/1999/xlink" x="0px" y="0px"
	 viewBox="0 0 200 200" style="enable-background:new 0 0 200 200;" xml:space="preserve">
<style type="text/css">
	.st0{fill:none;stroke:#000000;stroke-width:8;stroke-miterlimit:10;}
	.st1{fill:none;stroke:#000000;stroke-width:7;stroke-linecap:round;stroke-miterlimit:10;}
	.st2{fill:none;}
	.st3{stroke:#000000;stroke-width:0.25;stroke-miterlimit:10;}
	.st4{font-family:'KitsuneUdon';}
	.st5{font-size:26.3986px;}
	.st6{stroke:#000000;stroke-miterlimit:10;}
	.st7{font-size:16.0277px;}
</style>
<g>
	<g>
		<g>
			<defs>
				<path id="XMLID_79_" d="M41.9,93.2c-0.3,0-0.6-0.1-0.9-0.4c-0.4-0.4-0.5-1-0.3-1.5l9.7-22.2c0.3-0.7,1.1-1,1.7-0.7
					c0.7,0.3,1,1.1,0.7,1.7l-8.3,18.9l19.8-9.9c0.6-0.3,1.4-0.1,1.7,0.6c0.3,0.6,0.1,1.4-0.6,1.7L42.5,93
					C42.3,93.1,42.1,93.2,41.9,93.2z"/>
			</defs>
			<use xlink:href="#XMLID_79_"  style="overflow:visible;"/>
			<clipPath id="XMLID_2_">
				<use xlink:href="#XMLID_79_"  style="overflow:visible;"/>
			</clipPath>
		</g>
	</g>
	<g>
		<g>
			<defs>
				<path id="XMLID_78_" d="M70.1,93.2c-0.2,0-0.4,0-0.6-0.1l-19.2-9.2c0,0,0,0,0,0c0,0,0,0-0.1,0l-4-1.9c-0.6-0.3-0.9-1.1-0.6-1.7
					c0.3-0.6,1.1-0.9,1.7-0.6l2.9,1.4l7-15.6c0.2-0.5,0.7-0.8,1.2-0.8c0,0,0,0,0,0c0.5,0,1,0.3,1.2,0.8l11.7,26
					c0.2,0.5,0.1,1.1-0.3,1.5C70.8,93,70.5,93.2,70.1,93.2z M52.6,82.1l14.9,7.1l-9-20.1L52.6,82.1z"/>
			</defs>
			<use xlink:href="#XMLID_78_"  style="overflow:visible;"/>
			<clipPath id="XMLID_3_">
				<use xlink:href="#XMLID_78_"  style="overflow:visible;"/>
			</clipPath>
		</g>
	</g>
</g>
<g>
	<g>
		<g>
			<defs>
				<path id="XMLID_77_" d="M70.1,91.1c0.3,0,0.6,0.1,0.9,0.4c0.4,0.4,0.5,1,0.3,1.5l-9.7,22.2c-0.3,0.7-1.1,1-1.7,0.7
					c-0.7-0.3-1-1.1-0.7-1.7l8.3-18.9l-19.8,9.9c-0.6,0.3-1.4,0.1-1.7-0.6c-0.3-0.6-0.1-1.4,0.6-1.7l23-11.5
					C69.7,91.2,69.9,91.1,70.1,91.1z"/>
			</defs>
			<use xlink:href="#XMLID_77_"  style="overflow:visible;"/>
			<clipPath id="XMLID_4_">
				<use xlink:href="#XMLID_77_"  style="overflow:visible;"/>
			</clipPath>
		</g>
	</g>
	<g>
		<g>
			<defs>
				<path id="XMLID_76_" d="M41.9,91.1c0.2,0,0.4,0,0.6,0.1l19.2,9.2c0,0,0,0,0,0c0,0,0,0,0.1,0l4,1.9c0.6,0.3,0.9,1.1,0.6,1.7
					c-0.3,0.6-1.1,0.9-1.7,0.6l-2.9-1.4l-7,15.6c-0.2,0.5-0.7,0.8-1.2,0.8c0,0,0,0,0,0c-0.5,0-1-0.3-1.2-0.8l-11.7-26
					c-0.2-0.5-0.1-1.1,0.3-1.5C41.3,91.2,41.6,91.1,41.9,91.1z M59.5,102.2l-14.9-7.1l9,20.1L59.5,102.2z"/>
			</defs>
			<use xlink:href="#XMLID_76_"  style="overflow:visible;"/>
			<clipPath id="XMLID_5_">
				<use xlink:href="#XMLID_76_"  style="overflow:visible;"/>
			</clipPath>
		</g>
	</g>
</g>
<rect x="16.7" y="50.4" class="st0" width="160.4" height="80.2"/>
<line class="st1" x1="96.8" y1="59.8" x2="96.8" y2="121.2"/>
<rect x="105.4" y="69.7" class="st2" width="62.1" height="45"/>
<text transform="matrix(1 0 0 1 119.5135 90.1791)"><tspan x="0" y="0" class="st3 st4 st5">arte</tspan><tspan x="-0.3" y="13.2" class="st6 st4 st7">aparte</tspan></text>
</svg>
