<?xml version="1.0" encoding="UTF-8" standalone="no"?>
<svg width="156px" height="222px" viewBox="0 0 156 222" version="1.1" xmlns="http://www.w3.org/2000/svg" xmlns:xlink="http://www.w3.org/1999/xlink" xmlns:sketch="http://www.bohemiancoding.com/sketch/ns">
    <!-- Generator: Sketch 3.3.3 (12081) - http://www.bohemiancoding.com/sketch -->
    <title>Group 187</title>
    <desc>Created with Sketch.</desc>
    <defs>
        <path id="path-1" d="M0.875,221.323 L156,221.323 L156,0.948 L0.875,0.948 L0.875,221.323 L0.875,221.323 Z"></path>
    </defs>
    <g id="Page-3" stroke="none" stroke-width="1" fill="none" fill-rule="evenodd" sketch:type="MSPage">
        <g id="home" sketch:type="MSLayerGroup" transform="translate(-412.000000, -431.000000)">
            <g id="Group-216" transform="translate(10.000000, 0.000000)">
                <g id="Group-187" transform="translate(401.336100, 431.000000)">
                    <mask id="mask-2" sketch:name="Clip 186" fill="white">
                        <use xlink:href="#path-1"></use>
                    </mask>
                    <g id="Clip-186"></g>
                    <path d="M156,47.5193 L137.884,7.0973 C136.21,3.3683 132.492,0.9523 128.391,0.9483 C124.307,0.9483 120.586,3.3513 118.906,7.0723 L69.46,116.5973 L59.334,111.7703 L89.793,42.1983 C90.909,39.6543 90.965,36.8253 89.953,34.2373 C88.941,31.6463 86.981,29.6073 84.435,28.4913 C81.891,27.3743 79.069,27.3143 76.48,28.3233 C73.886,29.3343 71.841,31.2973 70.724,33.8513 L1.725,191.4533 C1.17,192.7223 0.916,194.0603 0.888,195.3943 C0.878,195.5563 0.877,195.7173 0.875,195.8803 C0.879,196.0223 0.881,196.1633 0.891,196.3053 C0.929,197.6403 1.195,198.9743 1.761,200.2383 L11.218,221.3233 L156,221.3233 L156,47.5193 Z" id="Fill-185" fill-opacity="0.9" fill="rgba(80,173,201,1)" sketch:type="MSShapeGroup" mask="url(#mask-2)"></path>
                </g>
            </g>
        </g>
    </g>
</svg>