<?xml version="1.0" encoding="utf-8"?>
<!-- Generator: Adobe Illustrator 19.1.0, SVG Export Plug-In . SVG Version: 6.00 Build 0)  -->
<svg version="1.1" id="Capa_1" xmlns="http://www.w3.org/2000/svg" xmlns:xlink="http://www.w3.org/1999/xlink" x="0px" y="0px"
	 viewBox="0 0 462.4 414.9" style="enable-background:new 0 0 462.4 414.9;" xml:space="preserve">
<path d="M237.8,37.3c-89.4,0-162.1,72.7-162.1,162.1c0,89.4,72.7,162.1,162.1,162.1c89.4,0,162.1-72.7,162.1-162.1
	C399.9,110,327.2,37.3,237.8,37.3z M227.8,341c-30.4-2.1-58.3-13.7-80.4-32l80.4-80.1V341z M247.8,228.9l80.4,80.1
	c-22.2,18.3-50,29.9-80.4,32V228.9z M95.7,199.4c0-75,58.4-136.5,132.1-141.6v143l-94.8,94.4C109.9,269.8,95.7,236.3,95.7,199.4z
	 M342.6,295.1l-94.8-94.3v-143c73.7,5.2,132.1,66.6,132.1,141.6C379.9,236.3,365.7,269.8,342.6,295.1z"/>
</svg>
