<?xml version="1.0" encoding="utf-8"?>
<!-- Generator: Adobe Illustrator 19.1.0, SVG Export Plug-In . SVG Version: 6.00 Build 0)  -->
<svg version="1.1" id="Capa_1" xmlns="http://www.w3.org/2000/svg" xmlns:xlink="http://www.w3.org/1999/xlink" x="0px" y="0px"
	 viewBox="0 0 595.3 841.9" style="enable-background:new 0 0 595.3 841.9;" xml:space="preserve">
<g>
	<path d="M443.6,371.3c0-2-0.2-4-0.5-6.1c-2.1-14.3-17-24.2-36.3-24.2c-21.4,0-42.8,0-64.2,0l-13.3-21.9c-0.5-0.9-1.5-1.4-2.5-1.4
		h-38.4c-0.9,0-1.8,0.4-2.3,1.2l-15.9,22c-25.2,0-50.4,0-75.7,0c-5,0-10.2,0.1-15.1,0.9c-15.7,2.4-27.7,13.8-27.7,25.8
		c0,43.3,0,86.6,0,129.9c0,8.4,4.6,15.2,13,20.8c8.3,5.5,18.4,6.5,28.9,6.5c34.7,0,69.3,0,104,0c0-0.1,0-0.1,0-0.2
		c35.8,0,71.6,0,107.4,0c3.7,0,7.5-0.2,11.1-0.8c16.4-3.1,27.6-14,27.6-26.7C443.7,455.2,443.7,413.2,443.6,371.3z M289.9,323.5
		h35.3l10.6,17.5c-2.1,0-4.2,0-6.3,0l-6.5-10.8c-0.5-0.9-1.5-1.4-2.5-1.4h-25.8c-0.9,0-1.8,0.4-2.3,1.2l-7.9,10.9
		c-2.4,0-4.9,0-7.3,0L289.9,323.5z M322.8,341c-10.4,0-20.8,0-31.2,0l4.6-6.4h22.7L322.8,341z M428.9,492.6c0,2.5-0.1,5.1-0.8,7.6
		c-2.2,7.8-11.2,13.4-22,14.1c-2.2,0.1-4.5,0.2-6.8,0.2c-66.1,0-132.1,0-198.2,0c-5.4,0-11-0.2-16.3-1.1
		c-10.5-1.7-17.6-7.9-18.3-15.9c-0.5-5.8-0.2-11.6-0.2-17.4c0-18,0-36,0-54.1c0-2.1,0-3.4,0-4.2c0-0.1,0-0.4,0-1.1
		c0-0.8,0-2.1,0-4.2c0-0.9,0-1.7,0-2.8c32,0,63.9,0,95.8,0c-3.8,6.7-6,14.4-6,22.7c0,25.6,20.8,46.4,46.4,46.4
		c25.6,0,46.4-20.8,46.4-46.4c0-8.2-2.2-16-6-22.7c28.6,0,57.2,0,85.8,0c0,0.8,0.1,1.6,0.1,2.3C429,451.1,429,457.5,428.9,492.6z
		 M343.2,436.3c0,22.4-18.2,40.7-40.7,40.7s-40.7-18.2-40.7-40.7s18.2-40.7,40.7-40.7S343.2,413.9,343.2,436.3z M337.8,406.2
		c-8.5-10-21.2-16.3-35.3-16.3c-14.1,0-26.7,6.3-35.3,16.3c-33.5,0-67,0-100.4,0c-0.7-2.7-0.9-34.1-0.6-36.5
		c1.2-11.1,11.7-18.4,26.8-18.4c69.7,0,139.4,0,209.1,0.1c12.6,0,22.9,5.1,25.8,13.5c1.4,4,1.1,37,1.6,41.4
		C398.8,406.2,368.3,406.2,337.8,406.2z"/>
	<path d="M302.5,408c-15.8,0-28.6,12.8-28.6,28.6c0,15.8,12.8,28.6,28.6,28.6c15.8,0,28.6-12.8,28.6-28.6
		C331.2,420.9,318.3,408,302.5,408z M302.5,459.5c-12.6,0-22.9-10.3-22.9-22.9c0-12.6,10.3-22.9,22.9-22.9
		c12.6,0,22.9,10.3,22.9,22.9C325.4,449.3,315.2,459.5,302.5,459.5z"/>
	<path d="M312.6,421.5l-1.8,2.2c0.3,0.3,7.6,6.5,4.5,16.8c-2.1,6.9-7.5,8.9-9.7,9.5c-2.9,0.7-4.9,0.2-5.2-0.1l-2.2,1.9
		c0.9,1,2.7,1.5,4.5,1.5c1,0,2-0.1,3-0.3c2.8-0.6,9.7-3,12.3-11.6C321.6,429.2,312.9,421.8,312.6,421.5z"/>
	<path d="M367.5,392.8H406v-30.1h-38.5V392.8z M371.8,367h29.9v21.5h-29.9V367z"/>
</g>
</svg>
