<?xml version="1.0" encoding="utf-8"?>
<!-- Generator: Adobe Illustrator 19.1.0, SVG Export Plug-In . SVG Version: 6.00 Build 0)  -->
<svg version="1.1" id="Capa_1" xmlns="http://www.w3.org/2000/svg" xmlns:xlink="http://www.w3.org/1999/xlink" x="0px" y="0px"
	 viewBox="0 0 462.4 414.9" style="enable-background:new 0 0 462.4 414.9;" xml:space="preserve">
<g>
	<path d="M382.2,267.6l-21.1-24l-4.4-5.2c19.2-16.7,12.7-40.3,5.9-51.5c-0.2-0.3-0.3-0.5-0.5-0.8c-0.1-0.2-0.2-0.4-0.4-0.6
		c-2.4-3.1-78.3-99.8-98-120.3c-7.9-8.3-18.5-12.7-30.5-12.7c-13.2,0-23.9,5.3-24.4,5.6l-28.4,15l-38-52.4c-2.6-3.5-7.5-4.3-11-1.8
		c-3.6,2.6-4.3,7.5-1.7,11l36.5,50.4L133.4,97L95.5,47.5c-2.6-3.5-7.5-4.1-11-1.4c-3.4,2.6-4.1,7.5-1.4,11l36,47.2l-40.7,21.1
		c-0.8,0.4-18.6,9.3-23,26.9c-2.7,10.6,0.1,21.6,8.2,33l93.1,117.5c0.1,0.1,0.2,0.3,0.3,0.4c5.4,9.1,12.9,14.9,22.2,17.4
		c3.4,0.9,6.8,1.3,10.1,1.3c13.5,0,25.7-6.1,29.3-8l33.9,38c4.9,5.4,15.3,12.7,27.6,12.7c5.3,0,10.9-1.3,16.6-4.8l77.6-43.2
		c1.5-0.9,14.2-8.9,16.5-23C392.3,284.8,389.4,276,382.2,267.6z M154.7,274.8l-78.4-98.9c-5.2-7.1-7.1-13.7-5.6-19.6
		c2.5-10.5,14.6-16.7,14.8-16.9l49.3-25.5l81.1-41.8c0.1,0,7.9-3.9,17.3-3.9c7.8,0,14.2,2.7,19.3,7.8c12.2,12.7,59.1,71.2,78,95
		c-14.8,0.1-27.9,6.8-28.5,7.1l-122.1,65.4C164.8,253.2,157.6,264.4,154.7,274.8z M183.3,305.5c-5.4-1.4-9.6-4.9-12.9-10.5l-0.2-0.5
		c-1.3-3.2-7.3-21.5,17.5-37.3l121.4-65.1c0.2-0.1,10.6-5.2,21.6-5.2c7.9,0,14.1,2.6,18.4,8.1c0.1,0.1,0.1,0.2,0.2,0.2
		c2.1,3.8,10.1,19.7-2.8,31.3l-18.3-21.2c-2.4-2.8-6.4-3.5-9.6-1.9l-113.3,61.4c-2.6,1.3-4.2,4.1-4.2,7v17c0,1.9,0.6,3.7,1.9,5.1
		l6.1,7.1C204.1,303.5,193,308,183.3,305.5z M374.9,290.9c-0.9,5.7-6.7,10.4-8.6,11.6l-77.6,43.2c-12.2,7.4-22.9-3.5-24-4.7
		L245,318.9l-28.1-33v-9.4l102.5-55.8l50.6,57.5C373.8,282.8,375.5,287,374.9,290.9z"/>
	<path d="M355.5,276c-7.7-8.4-21.3-11.1-30.2-6.1l-54.7,30.3c-4.9,2.7-7.4,7.2-7.4,12c0,4,1.7,8.3,5.2,12
		c7.7,8.4,21.2,11.1,30.2,6.1l54.7-30.3C362.2,295.1,363.2,284.3,355.5,276z M288.3,327.5l-16.5-19.6l5.4-3l16.4,19.7L288.3,327.5z
		 M297.9,322.1l-16.4-19.6l5.4-3l16.4,19.7L297.9,322.1z M307.6,316.7l-16.5-19.7l5.4-3l16.4,19.7L307.6,316.7z M317.3,311.4
		l-16.4-19.7l5.4-3l16.4,19.7L317.3,311.4z M327.2,305.9l-16.6-19.6l5.4-3l16.6,19.6L327.2,305.9z M336.7,300.6L320.2,281l5.4-3
		l16.4,19.7L336.7,300.6z M346.5,295.1L330,275.4l5.4-3l16.5,19.7L346.5,295.1z"/>
</g>
</svg>
