<?xml version="1.0" encoding="utf-8"?>
<!-- Generator: Adobe Illustrator 19.1.0, SVG Export Plug-In . SVG Version: 6.00 Build 0)  -->
<svg version="1.1" id="Capa_1" xmlns="http://www.w3.org/2000/svg" xmlns:xlink="http://www.w3.org/1999/xlink" x="0px" y="0px"
	 viewBox="0 0 462.4 414.9" style="enable-background:new 0 0 462.4 414.9;" xml:space="preserve">
<g>
	<path d="M195.5,57.3h-26.4c-11.2,0-20.2,9.1-20.2,20.2s9.1,20.2,20.2,20.2h26.4c11.2,0,20.2-9.1,20.2-20.2S206.6,57.3,195.5,57.3z
		 M195.5,89h-26.4c-6.4,0-11.5-5.2-11.5-11.5S162.7,66,169.1,66h26.4c6.4,0,11.5,5.2,11.5,11.5S201.8,89,195.5,89z"/>
	<path d="M285.4,36.2H158.5c-17,0-30.8,13.8-30.8,30.8V342c0,17,13.8,30.8,30.8,30.8h126.9c17,0,30.8-13.8,30.8-30.8V66.9
		C316.2,50,302.4,36.2,285.4,36.2z M307.5,342c0,12.2-9.9,22.1-22.1,22.1H158.5c-12.2,0-22.1-9.9-22.1-22.1V66.9
		c0-12.2,9.9-22.1,22.1-22.1h126.9c12.2,0,22.1,9.9,22.1,22.1V342z"/>
</g>
</svg>
