<?xml version="1.0" encoding="utf-8"?>
<!-- Generator: Adobe Illustrator 19.1.0, SVG Export Plug-In . SVG Version: 6.00 Build 0)  -->
<svg version="1.1" id="Capa_1" xmlns="http://www.w3.org/2000/svg" xmlns:xlink="http://www.w3.org/1999/xlink" x="0px" y="0px"
	 viewBox="0 0 462.4 414.9" style="enable-background:new 0 0 462.4 414.9;" xml:space="preserve">
<g>
	<path d="M322.1,56.5c0-16-11.6-27.6-27.6-27.6h-41c-27.3,0-54.7,0-82,0c0,0,0,0,0,0c-8.6,0-15.8,3.5-21.4,10.4
		c-5,6.2-5.6,13.6-5.6,19.3c0,69.1,0,138.2,0,207.3l0,88.8l0,0.8c0,0.6,0,1.3,0,1.9c0.5,15.8,11.8,26.8,27.6,26.8
		c15,0,29.9,0,44.9,0c25.9,0,51.8,0,77.8,0c2.1,0,4,0,5.9-0.5c13-2.8,21.4-13.6,21.4-27.3c0-37.4,0-74.8,0-112.3l0-128.9
		C322.1,95.5,322.1,76,322.1,56.5z M313.6,355.5c0,6-1.9,11.1-5.6,14.8c-3.6,3.6-8.8,5.6-14.6,5.6c-0.1,0-0.1,0-0.2,0
		c-41.1-0.3-81.4-0.3-119.7,0c-0.1,0-0.1,0-0.2,0c-5.8,0-11.1-2-14.7-5.7c-3.7-3.7-5.7-8.9-5.6-14.9c0.3-36,0.2-72.5,0.2-107.9
		c0-13.7,0-27.4,0-41.1c0-13.6,0-27.3,0-40.9c0-35.3,0.1-71.8-0.2-107.7c0-6.1,1.9-11.2,5.6-14.9c3.7-3.7,8.9-5.7,14.8-5.7
		c0.1,0,0.1,0,0.2,0c38.9,0.3,79.2,0.3,119.7,0c5.8,0.1,11.1,2,14.8,5.6c3.7,3.6,5.6,8.8,5.6,14.8
		C313.4,155,313.4,255.3,313.6,355.5z"/>
	<path d="M304.4,74.1c-47.5,0-95,0-142.5,0c-4.7,0-4.8,0.1-4.8,5c0,85,0,170,0,255c0,4.7,0.2,4.8,4.9,4.8c47.4,0,94.8,0,142.1,0
		c5.1,0,5.1,0,5.1-5.3c0-42.3,0-84.6,0-126.9c0-42.4,0-84.9,0-127.3C309.4,74.1,309.3,74.1,304.4,74.1z M304.5,334.3
		c-47.5,0-94.8,0-142.6,0c0-85.3,0-170.4,0-255.7c47.5,0,94.9,0,142.6,0C304.5,163.9,304.5,249,304.5,334.3z"/>
	<path d="M233.3,345.4c-6,0-10.8,4.6-11,10.6c-0.2,6.1,4.7,11,10.9,11.1c6.2,0,11.1-4.9,11-10.9
		C244.1,350.3,239.1,345.4,233.3,345.4z M233.1,362.7c-3.3-0.1-6.3-3.2-6.2-6.6c0.1-3.4,3.1-6.5,6.4-6.4c3.4,0.1,6.3,3.2,6.2,6.6
		C239.5,359.7,236.5,362.8,233.1,362.7z"/>
	<path d="M232.5,61.1c4.1,0,8.2,0.1,12.3-0.1c1.1-0.1,2.1-1.3,3.2-1.9c-1.1-0.8-2.2-2.2-3.3-2.2c-7.9-0.2-15.9-0.2-23.8,0
		c-1.1,0-2.1,1.2-3.2,1.9c1.1,0.8,2.2,2.2,3.3,2.2C224.8,61.2,228.7,61.1,232.5,61.1z"/>
</g>
</svg>
