<?xml version="1.0" encoding="utf-8"?>
<!-- Generator: Adobe Illustrator 19.1.0, SVG Export Plug-In . SVG Version: 6.00 Build 0)  -->
<svg version="1.1" id="Capa_1" xmlns="http://www.w3.org/2000/svg" xmlns:xlink="http://www.w3.org/1999/xlink" x="0px" y="0px"
	 viewBox="0 0 462.4 414.9" style="enable-background:new 0 0 462.4 414.9;" xml:space="preserve">
<g>
	<polygon points="220.6,249.1 220.6,281.8 220.6,314.5 248.9,298.2 277.2,281.8 248.9,265.5 	"/>
	<path d="M394.8,173.5c0-2.8-0.3-5.6-0.6-8.4c-2.2-19.7-17.4-33.4-37.2-33.4c-72.5-0.1-144.9-0.1-217.4-0.1
		c-5.2,0-10.4,0.2-15.5,1.2c-16,3.3-28.3,19-28.4,35.7c0,59.8,0,119.6,0,179.4c0,11.6,4.7,21,13.3,28.7c8.5,7.6,18.8,9,29.6,9
		c35.5,0,71,0,106.5,0c0-0.1,0-0.1,0-0.2c36.6,0,73.3,0,109.9,0c3.8,0,7.7-0.2,11.4-1.2c16.7-4.2,28.3-19.3,28.3-36.9
		C394.8,289.4,394.8,231.5,394.8,173.5z M273.8,146c10.2,0,20.4,0,30.6,0L282,182.2c-10.4,0-20.9,0-31.3,0L273.8,146z M209.1,182.2
		c-11.1,0-22.1,0-33.1,0l23.2-36.2c10.8,0,21.6,0,32.4,0L209.1,182.2z M138.1,146c6.2,0,12.5,0,18.7,0l-22.4,36.2
		c-7.7,0-15.4,0-23,0C107.4,160.9,119.4,146,138.1,146z M379.7,341.1c0,3.5-0.1,7.1-0.9,10.5c-2.3,10.7-11.5,18.6-22.5,19.4
		c-2.3,0.2-4.6,0.3-6.9,0.3c-67.7,0-135.3,0-203,0c-5.6,0-11.3-0.3-16.7-1.5c-10.7-2.4-18-11-18.7-21.9c-0.5-8-0.2-16-0.2-24
		c0-24.9,0-49.8,0-74.7c0-17.6,0-35.1,0-52.7c0-1.2,0-2.4,0-3.9c5.7,0,11.5,0,17.2,0h41.4c11.1,0,22.2,0,33.4,0h41.4
		c10.5,0,21,0,31.6,0H317c20.9,0,41.7,0,62.6,0c0,1.1,0.1,2.2,0.1,3.2C379.7,244.1,379.8,292.6,379.7,341.1z M323.6,182.2l23.2-36.1
		c1.8,0,3.6,0,5.5,0c12.9,0,23.4,7,26.4,18.6c1.4,5.5,1.1,11.4,1.6,17.5C361.2,182.2,342.5,182.2,323.6,182.2z"/>
	<path d="M370.3,72.4l14.8-3.2c-1.3-6.1-2.6-12.3-4-18.4c-0.6-2.7-1.4-5.4-2.3-8.1c-6.3-18.8-24-29-43.4-24.8
		c-70.9,15.2-141.7,30.3-212.6,45.6c-5,1.1-10.2,2.3-14.9,4.4c-15,6.6-23.7,24.5-20.2,40.9c1.7,7.8,3.3,15.6,5,23.3l14.7-3.2
		C195.3,110.1,282.6,91.3,370.3,72.4z M231.8,91.7c-9.5,2-18.9,4.1-28.4,6.1l-32.2-30.1c9.2-2,18.4-3.9,27.6-5.9L231.8,91.7z
		 M237,53.6c9.7-2.1,19.4-4.2,29.2-6.3l33,29.9c-10,2.1-20,4.3-30,6.5L237,53.6z M363.5,45.6c2.5,5.1,3.5,10.9,5.3,16.8
		c-10.7,2.3-21.3,4.6-32.1,6.9l-32.2-30c9.8-2.1,19.5-4.2,29.3-6.3C346.4,30.2,358.1,34.8,363.5,45.6z M124.4,77.8
		c2.8-0.6,5.7-1.2,8.5-1.8l33.1,29.9c-20,4.3-40.1,8.6-60.2,12.9C97.6,98.8,106.1,81.7,124.4,77.8z"/>
</g>
</svg>
