<?xml version="1.0" encoding="utf-8"?>
<!-- Generator: Adobe Illustrator 19.1.0, SVG Export Plug-In . SVG Version: 6.00 Build 0)  -->
<svg version="1.1" id="Capa_1" xmlns="http://www.w3.org/2000/svg" xmlns:xlink="http://www.w3.org/1999/xlink" x="0px" y="0px"
	 viewBox="0 0 462.4 414.9" style="enable-background:new 0 0 462.4 414.9;" xml:space="preserve">
<path d="M377.5,90.2c-26.7,0-49.8,15.4-61.1,37.7L142.1,83.7c0-0.3,0.1-0.6,0.1-0.9c0-23.4-19-42.4-42.4-42.4s-42.4,19-42.4,42.4
	s19,42.4,42.4,42.4c19.6,0,35.9-13.3,40.8-31.3l171.8,43.6c-2.2,6.7-3.4,13.8-3.4,21.2c0,9.2,1.8,17.9,5.1,25.8L170.2,284.8
	c-10.3-18.4-30-30.8-52.6-30.8c-33.3,0-60.3,27-60.3,60.3c0,33.3,27,60.3,60.3,60.3c33.3,0,60.3-27,60.3-60.3c0-7-1.3-13.7-3.5-20
	l144.3-100.5c12,20,33.8,33.4,58.7,33.4c37.8,0,68.5-30.7,68.5-68.5C446,120.9,415.3,90.2,377.5,90.2z"/>
</svg>
