<?xml version="1.0" encoding="utf-8"?>
<!-- Generator: Adobe Illustrator 19.1.0, SVG Export Plug-In . SVG Version: 6.00 Build 0)  -->
<svg version="1.1" id="Capa_1" xmlns="http://www.w3.org/2000/svg" xmlns:xlink="http://www.w3.org/1999/xlink" x="0px" y="0px"
	 viewBox="0 0 462.4 414.9" style="enable-background:new 0 0 462.4 414.9;" xml:space="preserve">
<g>
	<path d="M226.6,46.9c41.4,0,82.8,0,124.3,0c33.8,0,61.1,22,68.2,54.9c1,4.6,1.4,9.4,1.4,14.2c0.1,53.9,0.1,107.8,0,161.7
		c-0.1,38.7-30.5,69-69.3,69c-83.3,0.1-166.7,0.1-250,0c-39.1,0-69.3-30.2-69.3-69.3c0-53.8,0-107.5,0-161.2
		c0-39.1,30.2-69.2,69.4-69.2C143.1,46.8,184.9,46.9,226.6,46.9z M53.9,98.9c1.2,0.9,2.5,1.9,3.9,2.9
		c51.8,36.8,103.7,73.6,155.5,110.4c9.1,6.5,17,6.4,26.3-0.2c41.5-29.5,83.1-59,124.6-88.4c11.6-8.3,23.2-16.5,34.8-24.8
		c-7.4-20.4-25.7-33.3-47-33.3c-22.2,0-44.4,0-66.6,0c-61.7,0-123.3,0-185,0C79.2,65.6,59.3,79.8,53.9,98.9z M398.8,295.4
		c-0.4-0.6-0.5-0.8-0.6-0.9c-39.6-28.2-79.2-56.4-118.9-84.4c-1.1-0.8-3.7-0.5-4.9,0.3c-8,5.4-15.9,11.1-23.8,16.7
		c-16.1,11.4-32.4,11.5-48.4,0.1c-8.8-6.3-17.7-12.5-26.6-18.9c-40.7,28.9-81.3,57.7-121.7,86.5c6.1,19,25.2,33.2,45.3,33.2
		c84.8,0.1,169.6,0.1,254.5,0c2.8,0,5.6-0.4,8.3-1C379.9,323,392,312.1,398.8,295.4z M293.2,196.9c36.6,26,72.3,51.4,108.5,77.1
		c0-51.7,0-102.5,0-154.1C365.3,145.6,329.5,171.1,293.2,196.9z M50.9,274c36.6-26,72.3-51.4,108.6-77.1
		c-36.5-25.9-72.3-51.3-108.6-77.1C50.9,171.6,50.9,222.3,50.9,274z"/>
	<path d="M252.1,167.6c-0.1,14.4-11.9,26.1-26.1,25.9c-14.2-0.2-25.6-11.8-25.6-25.9c-0.1-14.6,11.6-26.1,26.4-26
		C240.9,141.7,252.1,153.2,252.1,167.6z M226.1,178.2c6.1,0.1,11.1-4.6,11.2-10.7c0.1-5.9-4.9-11.1-10.8-11.2
		c-5.9-0.1-11,4.8-11.1,10.9C215.3,173.4,219.9,178.2,226.1,178.2z"/>
</g>
</svg>
