<?xml version="1.0" encoding="utf-8"?>
<!-- Generator: Adobe Illustrator 19.1.0, SVG Export Plug-In . SVG Version: 6.00 Build 0)  -->
<svg version="1.1" id="Capa_1" xmlns="http://www.w3.org/2000/svg" xmlns:xlink="http://www.w3.org/1999/xlink" x="0px" y="0px"
	 viewBox="0 0 462.4 414.9" style="enable-background:new 0 0 462.4 414.9;" xml:space="preserve">
<path d="M444.7,134.8c-1.2-3.2-2.5-6.4-3.6-9.6c-1.8-5-5.2-7.7-10.6-8.4c-14.8-2-29.6-4.3-44.5-6.1c-18.4-2.2-36.6-6.3-55.3-6.6
	c-13.5-0.2-26.9,1.2-39.4,6.1c-14.1,5.5-28.7,9.5-42.8,14.8c-8.9,3.4-17.5,4.9-26.7,4.3c-1-0.1-2.1-0.1-3.1-0.5
	c-10.7-3.5-21.5-7-32.2-10.6c-1.6-0.5-3.2-1.1-4.8-1.8c-22.6-10.8-46.4-14.3-71.1-11.6c-10.1,1.1-20.1,2.8-30.2,4.2
	c-17.9,2.5-35.8,5-53.6,7.6c-7,1-10.6,5.7-9.9,12.8c0.3,3.4,0.7,6.8,1,10.2c0.4,4.1,2.5,7,5.9,9c3.6,2.1,7,4.6,10.8,6.1
	c6,2.4,7.5,6.5,7.4,12.6c-0.3,14.2,1.2,28.2,5.5,41.8c2.7,8.6,6.7,16.6,12.8,23.4c8.7,9.6,19.7,15,32.2,17c24.4,4,48.6,2.5,72.1-5.7
	c13.4-4.7,24.8-12.3,33.6-23.6c10.5-13.4,14.9-29.1,16-45.8c0.2-2.5,1.1-3.9,3-5.1c3.3-2,6.4-4.3,9.7-6.2c1-0.6,2.9-0.7,3.9-0.2
	c3.4,1.7,6.6,3.9,10.1,5.6c2.4,1.2,3.3,2.7,3.5,5.4c1.5,19.6,8.1,37,21.9,51.6c5.3,3.9,10.3,8.4,16.1,11.5
	c29.1,15.7,59.9,17.5,91.4,9.9c11.1-2.7,19.9-9.5,26.8-18.7c6.8-9.1,10.8-19.5,12.3-30.6c1.5-11.4,2.1-23,2.8-34.5
	c0.2-2.4,0.8-3.8,3.1-4.8c6.7-2.9,13.2-5.9,19.8-9.1C444.6,146.7,446.9,141,444.7,134.8z M52.1,137.3c-0.5,1.5-2.5,3.3-4,3.4
	c-5.2,0.4-10.4,0.3-15.6,0.1c-2.7-0.1-4.5-2.6-4.4-5.4c0.1-2.8,1.5-4.9,4.4-5c5.2-0.2,10.4-0.1,15.7,0c1,0,1.9,0.7,3.5,1.3
	C51.9,133.5,52.7,135.7,52.1,137.3z M190.5,185.4c-4,19.1-15.5,32.1-33.9,38.4c-19.9,6.9-40.4,7.7-61.1,4.1
	c-13.4-2.3-22-10.5-26.5-23.2c-3.9-11.1-5-22.7-5.3-34.4c-0.2-6,0-11.9,0-17.9c0-1.3-0.1-2.7-0.7-3.7c-1.5-2.8-0.2-4.5,2-5.8
	c2.2-1.3,4.4-2.6,6.8-3.6c16.6-7.1,33.8-12,51.9-13.2c15.8-1.1,31.1,1.9,45.4,8.7c5.2,2.5,9.9,6,14.9,9c-0.1,0.2-0.3,0.5-0.4,0.7
	c6.3,5.9,9.4,13.2,8.9,21.8C192.2,172.7,191.8,179.1,190.5,185.4z M394.2,150.3c-0.6,4.8,0,9.8-0.3,14.6
	c-0.8,10.5-1.6,21.1-2.9,31.5c-0.5,3.8-2.1,7.6-3.5,11.3c-3.9,9.9-11.1,16.7-21.4,19.1c-25,5.8-49.6,4.4-73.3-6.4
	c-2.1-1-4.1-2.3-6-3.6c-2.2-1.6-4.3-3.5-6.5-5.2c-5.7-6-9.9-13-11.9-21c-1.6-6.7-2.6-13.6-3.3-20.5c-1.5-14.7,5.1-25.2,17.6-32.2
	c16.2-9.1,33.8-12.7,52.1-11.5c17.1,1.2,33.6,5.7,49.5,12.5c2.1,0.9,4.1,1.9,6,3C395.4,144.9,394.9,144.8,394.2,150.3z M424.2,140.9
	c-4.7,0.1-9.4,0.1-14.1,0c-1.3,0-2.6-0.8-4.5-1.5c-0.1-2-0.5-4.1-0.2-6c0.4-2.3,2.3-3.2,4.6-3.2c4.7,0,9.4-0.1,14.1,0
	c3.3,0.1,5.2,2.2,5.2,5.3C429.3,138.7,427.4,140.8,424.2,140.9z"/>
</svg>
