<?xml version="1.0" encoding="utf-8"?>
<!-- Generator: Adobe Illustrator 19.1.0, SVG Export Plug-In . SVG Version: 6.00 Build 0)  -->
<svg version="1.1" id="Capa_1" xmlns="http://www.w3.org/2000/svg" xmlns:xlink="http://www.w3.org/1999/xlink" x="0px" y="0px"
	 viewBox="0 0 462.4 414.9" style="enable-background:new 0 0 462.4 414.9;" xml:space="preserve">
<g>
	<path d="M127,191.7l39.2,17l26.9-61.8c-15.8-6.2-32.1-12.7-48.3-19.7c-14.1-8.7-5.6-26.7,9.9-21.3c16.1,7,31.9,13.3,47.7,19.5
		l29.5-67.7c8.1-11.2,23.6-5.7,21.7,8.8l-29.2,67.1c24.7,10.8,35.9,14.4,63,25.5c10.2-26.2,21-52.8,32.5-79.1
		c8.1-11.2,23.6-5.7,21.7,8.8c-11,25.2-22.8,53.9-33.1,78.9c15.4,8.6,30,11.8,40.9,17.8c12.4,6.7,10.9,27.7-3,23
		c-16.8-5.4-28.1-10.3-46.9-18.5c-7.9,19.6-15.3,38-22.6,57.8c18.2,6.7,27.6,11.4,47.6,18.2c15.8,4.9,9.5,25.2-6.4,22.1
		c-20.8-6.5-29.5-11.5-50-18.5c-15.7,40.4-23.5,61.3-40.2,101.3c-7.6,14.6-26.2,7.1-21.7-8.8c16.3-38.9,24.5-60.8,40.3-100
		c-28.5-12.4-37.5-15-67.2-24.7l-34.1,78.4c-7.6,14.6-26.1,7.2-21.8-8.8l33.4-76.8L117.2,213C103.1,204.2,111.5,186.2,127,191.7z
		 M188.7,216c29.1,9.5,37.5,13.7,66.1,24.3l23.7-58.7c-25.8-11.2-35-16.5-63.1-26.8L188.7,216z"/>
</g>
</svg>
