<?xml version="1.0" encoding="utf-8"?>
<!-- Generator: Adobe Illustrator 19.1.0, SVG Export Plug-In . SVG Version: 6.00 Build 0)  -->
<svg version="1.1" id="Capa_1" xmlns="http://www.w3.org/2000/svg" xmlns:xlink="http://www.w3.org/1999/xlink" x="0px" y="0px"
	 viewBox="0 0 462.4 414.9" style="enable-background:new 0 0 462.4 414.9;" xml:space="preserve">
<g>
	<g>
		<path d="M231.2,387.5c-99.3,0-180-80.8-180-180s80.8-180,180-180c99.3,0,180,80.8,180,180S330.4,387.5,231.2,387.5z M231.2,44.4
			c-89.9,0-163,73.1-163,163c0,89.9,73.1,163,163,163s163-73.1,163-163C394.2,117.6,321.1,44.4,231.2,44.4z" style="fill:rgb(255,255,255)"/>
	</g>
	<g>
		<path d="M319.5,163.8c0-2.9-0.2-5.8-0.7-8.4c-3.4-19.8-17-33.1-33.7-33.1l-37.3,0l-16.6,0l-17,0l-37.3,0
			c-19.2,0-34.3,18.3-34.3,41.6v87c0,23.3,15.1,41.6,34.3,41.7c18,0,36.1,0,54.1,0c18,0,36.1,0,54.1,0c19.2,0,34.2-18.2,34.2-41.5
			C319.6,222,319.6,192.9,319.5,163.8z M172.8,131.3V161h8.5v-30.2l6.8,0V161h8.5v-30.2l17.7,0l17,0l16.6,0l37.3,0
			c12.5,0,22.7,10.5,25.4,26.1c0.4,2.1,0.6,4.5,0.6,6.9c0,4.8,0,9.6,0,14.4h-43.1c-8.3-9.7-20.5-15.9-34.3-15.9s-26,6.3-34.3,15.9
			h-48v-14.3C151.3,147.2,160.5,133.9,172.8,131.3z M233.6,170.8c20.4,0,37,16.6,37,37s-16.6,37-37,37c-20.4,0-37-16.6-37-37
			S213.2,170.8,233.6,170.8z M285.3,284.1c-36.1,0-72.2,0-108.3,0c-14.4,0-25.8-14.6-25.8-33.2v-64.3h42.3c-3.3,6.3-5.4,13.4-5.4,21
			c0,25.1,20.4,45.5,45.5,45.5c25.1,0,45.5-20.4,45.5-45.5c0-7.6-2.1-14.7-5.4-21h37.4c0,21.5,0,42.9,0,64.4
			C311,269.6,299.7,284.1,285.3,284.1z" style="fill:rgb(255,255,255)"/>
		<path d="M271.6,163.1h17.9c1.2,0,2.1-0.9,2.1-2.1v-17.2c0-1.2-0.9-2.1-2.1-2.1h-17.9c-1.2,0-2.1,0.9-2.1,2.1V161
			C269.5,162.1,270.4,163.1,271.6,163.1z M273.7,145.9h13.7v13h-13.7V145.9z" style="fill:rgb(255,255,255)"/>
	</g>
</g>
</svg>
