<?xml version="1.0" encoding="utf-8"?>
<!-- Generator: Adobe Illustrator 19.1.0, SVG Export Plug-In . SVG Version: 6.00 Build 0)  -->
<svg version="1.1" id="Capa_1" xmlns="http://www.w3.org/2000/svg" xmlns:xlink="http://www.w3.org/1999/xlink" x="0px" y="0px"
	 viewBox="0 0 462.4 414.9" style="enable-background:new 0 0 462.4 414.9;" xml:space="preserve">
<g>
	<path d="M87,158.5c3.3-33.5,29.4-54.1,29.7-54.3l-4.8-6.3c-1.2,0.9-29,22.7-32.7,59.7c-2.7,26.9,8.1,54.4,32.1,81.9l6-5.2
		C94.7,208.5,84.6,183,87,158.5z"/>
	<path d="M386.5,326.6l-82.3-82.3c12.9-21.6,20.5-46.7,20.5-73.6C324.8,91.5,260.3,27,181.1,27C101.8,27,37.4,91.5,37.4,170.7
		c0,79.2,64.5,143.7,143.7,143.7c24.3,0,47.2-6.1,67.3-16.8l83.6,83.6c15,15,39.6,15,54.6,0C401.6,366.2,401.6,341.6,386.5,326.6z
		 M53.2,170.7c0-70.5,57.4-127.9,127.9-127.9c70.5,0,127.9,57.4,127.9,127.9c0,70.5-57.4,127.9-127.9,127.9
		C110.6,298.6,53.2,241.2,53.2,170.7z"/>
</g>
</svg>
