<?xml version="1.0" encoding="utf-8"?>
<!-- Generator: Adobe Illustrator 19.1.0, SVG Export Plug-In . SVG Version: 6.00 Build 0)  -->
<svg version="1.1" id="Capa_1" xmlns="http://www.w3.org/2000/svg" xmlns:xlink="http://www.w3.org/1999/xlink" x="0px" y="0px"
	 viewBox="0 0 462.4 414.9" style="enable-background:new 0 0 462.4 414.9;" xml:space="preserve">
<g>
	<path d="M396,79.8C378.8,50.3,328.8,21,271.5,48.2c-55.8,26.5-56.7,84.5-56.7,87c0,3.7,3,6.8,6.8,6.8h0c3.7,0,6.8-3,6.8-6.8
		c0-0.5,0.8-51.9,48.9-74.8c49.5-23.5,92.3,1.1,107.3,26.7c25.7,35.9,40.6,119.5-66.8,205.2c-0.5,0.4-45,36.7-88,49.4
		C215,333.4,133,285.9,90.6,222.6c-54.2-81-27.1-126.4-6.1-146.2c13.9-13.1,64.2-52.2,126.2-3c2.9,2.3,7.2,1.8,9.5-1.1
		c2.3-2.9,1.8-7.2-1.1-9.5c-56-44.5-111.1-27.2-144,3.8c-19.4,18.3-57.9,70.9,4.1,163.6c48.4,72.4,142.6,122.8,146.6,124.9l2.4,1.3
		l2.6-0.7c46.7-12.7,93.7-51.1,95.6-52.7C441.7,210.9,424.2,119,396,79.8z"/>
	<g>
		<path d="M368.9,160.4c-0.2,0-0.5,0-0.7,0c-3.3-0.4-5.7-3.4-5.3-6.8c5.2-43-27.7-57.9-28.1-58c-3.1-1.4-4.5-4.9-3.2-8
			c1.3-3.1,5-4.5,8-3.2c0.4,0.2,41.6,18.8,35.3,70.7C374.5,158.2,371.9,160.4,368.9,160.4z"/>
	</g>
</g>
</svg>
