<?xml version="1.0" encoding="utf-8"?>
<!-- Generator: Adobe Illustrator 19.1.0, SVG Export Plug-In . SVG Version: 6.00 Build 0)  -->
<svg version="1.1" id="Capa_1" xmlns="http://www.w3.org/2000/svg" xmlns:xlink="http://www.w3.org/1999/xlink" x="0px" y="0px"
	 viewBox="0 0 462.4 414.9" style="enable-background:new 0 0 462.4 414.9;" xml:space="preserve">
<path d="M231.6,28.6c-96.6,0-175.3,78.6-175.3,175.3S135,379.2,231.6,379.2c96.6,0,175.3-78.6,175.3-175.3S328.3,28.6,231.6,28.6z
	 M256.1,49.8c-2.4,7.3-15.1,2.4-20.4,2.4c3.9-1.6,9.5-3.5,13.2-6.2c2.1,0.2,4.2,0.7,6.3,1c-1.3,0.6-2.7,1.1-4,1.9
	C252.8,49.4,254.4,49.4,256.1,49.8z M206.3,56.8v0.8c-2.9-0.4-5.7-1.6-6.5,2c-3.7-5.7-6.5-5.3-10.6,0c4.1,2.4,8.2,4.9,4.9,9
	c-4.1,4.5-6.1-1.2-2.4-3.7c-3.7-1.6-6.5-4.5-9.4-0.8c1.2,0,2.4,0.4,3.7,0.4c-0.8,0.8-1.2,4.1-2,4.5c-1.6,0.8-7.3-1.2-9-1.2
	c-4.5-0.4-8.6-0.4-13.1,0c0.8,5.3-5.3,0.4-7.3-1.2c4.1-4.1,8.6-2.4,13.5-2c3.7,0.4,9.4,0.4,9.8-4.5c-3.4-0.7-5.4-0.9-7.2-2.6
	c6.6-2.8,13.6-5,20.6-6.8c-0.2,1-0.1,1.8,0.9,2.5c2.9,2.9,5.7-1.6,8.6-2.9c5.5-2.9,13-3.3,19.5-4.5c0.6,0,1.1-0.1,1.7-0.1
	c-1.9,2.8-10.8,1.8-14.3,3c-4.5,1.6-2.4,2.9-5.3,7.8C203.4,56.4,205.1,57.2,206.3,56.8z M72.9,203.9c0-37,12.8-71,34.1-98
	c2,1.5,3.7,3,4.6,3.5c2.9,2.4,4.1,5.3,5.7,8.2c0,0,1.6,2.4,2,3.7c2,2,3.3,4.1,3.7,6.5c0.4,2.9-0.8,5.7-0.8,9
	c-0.8,9.8,0.4,18.8,8.2,25.7c2,2,4.9,2.9,6.9,4.9c2,2,2,3.7,3.3,5.7c3.3,5.7,8.2,11.4,12.2,16.7c3.7,4.9,4.9,3.7,1.6-1.2
	c-2.4-3.3-5.3-6.5-7.3-10.2c0-0.4-2-5.3-1.6-4.9c5.3,1.2,6.5,4.9,10.2,9.4c3.3,4.5,6.5,6.9,8.6,11.8c2.4,6.1,6.1,9,11.8,11.8
	c2.9,1.2,7.8,4.9,11,5.3c3.7,0.4,5.7-2,9-0.4c2.4,1.2,4.1,4.5,6.9,5.7c2.9,0.8,4.5-0.4,7.3,1.6c3.3,2,4.1,5.7,6.9,7.8
	c2,1.6,4.9,3.7,7.8,4.1c2,0.4,4.1-1.2,5.7-0.4c3.3,1.2,4.1,5.3,3.3,8.6c-1.2,3.7-4.5,6.1-6.1,9.8c-1.2,3.3-0.4,6.1-0.8,9.4
	c-0.4,3.3-3.3,0-0.4,5.7c1.2,2.4,2.9,4.9,4.5,7.3c3.3,4.9,5.3,9,9.4,12.6c2.9,2.9,9.4,5.7,10.6,9.8c1.2,3.7,0.4,11.4-0.4,15.1
	c-1.2,7.7-1.2,17.1-3.3,24.5c-2,6.9-4.5,9.4-2.9,16.7c0.8,3.3,1.2,1.6,0,6.1c-0.4,1.2,0,1.6-0.4,2.9c-0.4,1.3-1.3,2.4-2.2,3.5
	c-3.5,0.2-6.9,0.5-10.4,0.5C144.1,362.7,72.9,291.4,72.9,203.9z M260.1,360c1-1.7,2.6-4,2.9-4.6c0.8-1.6,1.2-5.3,2.4-6.5
	c1.6-2,5.7-1.2,4.9-5.7c8.6,0,12.2-1.2,13.5-10.2c-1.6-0.8-1.2-0.4-1.6-1.6c0.4,1.6,6.5-0.8,6.9,0.4c0.4,0.8,8.2-9.8,9-10.6
	c2-2.4,4.1-4.1,5.3-6.9c0.4-1.1,1.1-3.6,2.1-5.4c2.8-4.4,6.1-3.6,10.2-5.7c4.1-1.6,1.2-1.2,4.1-4.1c3.7-3.3,4.1-1.2,5.3-6.9
	c0.8-4.1-0.4-7.8,1.2-11c1.6-4.5,5.3-6.1,8.2-9.8c2-2.9,4.1-7.8,1.2-10.6c-2-2.4-9-4.5-11.8-5.3c-3.7-0.8-7.8-0.8-11-2.4
	c-4.1-1.6-6.9-5.7-9,0.8c-0.8-0.4-3.3-2-3.3-2.9c0,1.6,3.7-1.2,4.5-2c-1.6,0-7.3,1.2-8.2,0.8c0.4-1.6,3.3-5.3,3.3-5.7
	c0.4-4.1-5.3-8.6-8.6-9.4c-4.1-1.2-6.5-0.8-10.2-3.3c-4.5-3.3-8.6-6.9-14.3-7.3c-1.2,0-2.4,0.4-3.7,0.4c-2.9-0.4-4.1-2.4-6.5-2.9
	c-3.3-0.8-4.5,2-6.1,2c-2.9,0-3.3-2.9-7.3-0.4c-6.1,3.7-2.9,5.7-9.4,4.1c-3.7-0.8-7.8,1.2-11-1.2c-3.3-2-3.7-8.2-0.8-10.6
	c-1.6,1.2-1.6-2.9-2.4-3.7c-1.6-1.2-4.5,0-6.5-0.4c-2.9-0.8-4.5-0.8-3.7-3.7c0.8-2.9,8.6-10.6,0.4-10.6c-4.5,0-5.7,6.5-10.2,7.3
	c-4.9,0.8-9.4-0.8-12.2-5.3c-5.3-9.4,3.3-20.8,12.2-21.6c6.9-0.8,17.1-5.7,22.4,2c1.6,2,5.3,11,6.9,5.3c0.4-1.6-1.6-9-2-12.2
	c1.1-1.8,3.1-3.3,4.7-4.7c-0.1,0.1-0.1,0.2-0.2,0.3c1.6-1.6,6.5-4.1,7.3-6.5c0.4-1.2-1.6-3.3-0.4-4.9c0.8-1.6,2.9-0.8,3.7-1.6
	c1.2-1.2,1.2-3.7,2.4-5.3c1.2-1.6,3.7-1.6,4.9-2.9c2.9-2.4,3.7-5.7,6.9-6.9c3.3-2,6.5-5.7,10.6-4.1c-1.6,1.6-5.3,2.9-6.1,4.1
	c-0.8,1.2,5.3,0.4,6.1,0c3.3-1.2,6.1-4.1,9.4-5.7c4.9-3.3,11-3.7,17.1-2.4c2,0.4-3.3-7.3-4.1-7.7c-2-2.4-2.4-4.5-6.1-1.6
	c-0.8,0.8-2,4.1-2.9,5.3c-2,4.1-1.6,3.3-6.5,5.7c0.4,0,0.4-0.4,0.8-0.4c-3.3,0.8-6.9,2-8.2-2c-0.4-1.6,1.6-3.7,0.4-4.9
	c-2.4-3.3-10.6,3.7-13.5,4.5c1.6-11.8,15.5-5.7,22.8-7.8c2-0.8,9.8-3.7,10.2-5.3c0.8-2.9-6.1-7.3-7.3-8.6c-3.3-2.9-4.9-4.5-6.9-8.6
	c-2-4.5-3.3-9.4-8.2-5.7c-1.6,1.2-0.4,4.1-3.7,4.5c-2,0.4-4.1-2-5.3-3.3c-1.6-1.6-3.7-6.1-6.5-6.5c-2.9-0.4-10.2-4.1-13.5-1.6
	c-2.9,2,0.4,9.4,1.2,11.8c1.6,5.7,2.9,5.7-2,9.4c-2.4,1.6-3.7,0-2.9,4.5c0.4,2.4,3.3,2.9,1.2,4.9c-1.2,1.2-4.1,1.2-5.3,0.4
	c-4.1-2-0.4-4.5-2.4-7.3c-1.6-2-9.8-3.7-12.2-4.9c-6.1-2.9-22.4-5.7-17.1-15.1c1.2-2.4,6.5-6.5,8.6-7.8c2.4-1.6,5.3-2,7.3-4.1
	c1.2-1.2,1.2-4.5,2-5.3c1.2-1.2,5.3-0.8,7.7-0.4c9.4-2,0.8-15.5,13.1-13.1c3.3,0.8,6.9,4.1,9.8,6.1c3.3,2,4.1,2,3.3,5.3
	c-0.4,0.8-3.7,4.1-4.5,4.9c-1.6,1.2-4.5,2-6.1,2.9c6.5,0,9.4-0.4,14.7,3.3c4.5,2.9,7.3,4.9,13.1,4.9c-0.4-2.9-5.3-1.6-4.9-4.5
	c0-2.4,2.9,0.8,3.3,0.8c1.6,0,5.7,2,4.9-2.4c-0.8-3.7-9-2-6.5-8.2c3.7-0.4,2.9,3.7,5.3,4.5c2.4,0.8,6.1-2.4,6.5-4.5
	c-3.7-2-15.1-4.9-13.9-10.2c7.3,4.9,15.1,9.8,22.4,14.3c-6.1,5.3,4.5,2.4,4.9,2.4c1.6,0.4,6.5,4.5,3.3,5.3c-3.3,0.8-4.9-3.7-7.8-0.4
	c2.4,0.8,11.8,1.2,9.4,6.1c-0.8,2-6.9,1.6-8.6,5.7c1.2-0.4,2.4,0,4.1,0c-2.9,4.5,1.2,7.3,3.7,11c2.4,4.1,6.1,10.2,11.4,11.4
	c11,2.9,9.8-15.1,17.9-17.9c2.4-0.8,4.9-0.4,7.3-0.8c2.4-0.8,4.1-2.4,6.1-4.1c3.9-2.8,7.5-3.4,11.6-3.6
	c16.5,16.9,29.2,37.5,36.9,60.3c-0.7,0.8-0.8,1.6-1.2,2.8c-0.4,0.4-0.8,0.8-1.2,1.2c-0.8,1.6,0,3.7,0,5.3c0,2-0.8,3.7,0.4,5.3
	c0.8,1.6,2.4,3.3,4.1,4.5c1,1,2.2,1.7,3.4,2.1c0.7,3.5,1.2,7.1,1.6,10.7c-0.5,0.6-1.1,1.3-1.4,1.9c-1.2,2.4-1.2,4.1-3.7,6.1
	c-2,2-4.5,2.4-6.5,4.9c-1.6,2.4-1.6,4.1-2.9,6.5c-0.8,1.2-2.4,1.6-2.9,3.3c-1.6,3.3,0.4,8.6,0,12.2c0,4.5-1.6,8.2,0.8,12.2
	c2.4,3.7,6.1,7.3,9.4,9.8c0.9,0.9,1.8,1.5,2.8,2.1C369.3,303.4,320.7,348.9,260.1,360z"/>
</svg>
