<?xml version="1.0" encoding="utf-8"?>
<!-- Generator: Adobe Illustrator 19.1.0, SVG Export Plug-In . SVG Version: 6.00 Build 0)  -->
<svg version="1.1" id="Capa_1" xmlns="http://www.w3.org/2000/svg" xmlns:xlink="http://www.w3.org/1999/xlink" x="0px" y="0px"
	 viewBox="0 0 462.4 414.9" style="enable-background:new 0 0 462.4 414.9;" xml:space="preserve">
<g>
	<path d="M367.7,46.6c-1.6,0.2-3.2,0.6-4.6,1.4c-4.4,2.6-8.8,5.1-12.9,8.1c-14.2,10.5-27,22.5-39.7,34.7
		c-24.2,23.1-47.2,47.3-69,72.7c-18.5,21.6-36.9,43.4-54,66.1c-7.4,9.8-14.6,19.8-20.5,30.5c-1.6,2.9-2.9,6-4.4,9.1
		c1.7,1.3,3.1,2.3,4.5,3.3c1.2,0.9,2.3,2.4,3.5,2.4c1.4,0,2.8-1.3,4.1-2.1c7.9-5,15.1-11,22.2-17.2c18.9-16.4,36.8-33.9,54.1-51.9
		c14.3-14.8,28.7-29.5,42.1-45c20.8-24.2,40.3-49.6,58.7-75.7c6.1-8.6,12-17.2,16.7-26.7c1-2,1.7-4.1,2.3-6.3
		C371.6,47.8,370.3,46.3,367.7,46.6z"/>
	<path d="M159.4,278.7c-11.1-8.6-23.5-9-35.1-1.1c-9.4,6.4-15.4,15.1-17.8,26.3c-1.9,8.4-2.1,16.9-2.5,25.4c-0.1,3.2-0.9,6.2-2.4,9
		c-2.1,3.8-4.9,7-8.1,9.8c-5.6,5.1-12,9.1-18.7,12.7c-2.9,1.6-5.9,3-9.1,4.6c0.6,0.2,0.9,0.3,1.3,0.4c11.8,2.8,23.8,3.3,35.8,1.5
		c20.1-3.1,37.1-12.1,51-26.9c7.8-8.4,14-17.9,16.5-29.2C173.3,298.1,170.2,287.1,159.4,278.7z"/>
</g>
</svg>
