<?xml version="1.0" encoding="UTF-8" standalone="no"?>
<svg width="49px" height="48px" viewBox="0 0 49 48" version="1.1" xmlns="http://www.w3.org/2000/svg" xmlns:xlink="http://www.w3.org/1999/xlink" xmlns:sketch="http://www.bohemiancoding.com/sketch/ns">
    <!-- Generator: Sketch 3.3.3 (12081) - http://www.bohemiancoding.com/sketch -->
    <title>Group</title>
    <desc>Created with Sketch.</desc>
    <defs></defs>
    <g id="Page-2" stroke="none" stroke-width="1" fill="none" fill-rule="evenodd" sketch:type="MSPage">
        <g id="home" sketch:type="MSLayerGroup" transform="translate(-544.000000, -195.000000)" fill="#fff">
            <g id="Group-48" transform="translate(544.000000, 195.000000)" sketch:type="MSShapeGroup">
                <g id="Group">
                    <path d="M28.3003,2.5856 L24.0623,2.5856 C23.5933,2.5856 23.2143,2.2056 23.2143,1.7376 C23.2143,1.2696 23.5933,0.8906 24.0623,0.8906 L28.3003,0.8906 C28.7693,0.8906 29.1483,1.2696 29.1483,1.7376 C29.1483,2.2056 28.7693,2.5856 28.3003,2.5856 M21.5183,2.5856 L20.6713,2.5856 C20.2023,2.5856 19.8233,2.2056 19.8233,1.7376 C19.8233,1.2696 20.2023,0.8906 20.6713,0.8906 L21.5183,0.8906 C21.9873,0.8906 22.3663,1.2696 22.3663,1.7376 C22.3663,2.2056 21.9873,2.5856 21.5183,2.5856 M35.1143,0.0426 L13.8573,0.0426 C12.9403,0.0426 12.1943,0.7886 12.1943,1.7046 L12.1943,3.4336 L36.7773,3.4336 L36.7773,1.7046 C36.7773,0.7886 36.0313,0.0426 35.1143,0.0426" id="Fill-39"></path>
                    <path d="M12.62,39.459 L36.352,39.459 L36.352,5.554 L12.62,5.554 L12.62,39.459 Z M37.203,40.31 L11.769,40.31 L11.769,4.703 L37.203,4.703 L37.203,40.31 Z" id="Fill-40"></path>
                    <path d="M24.4856,46.6661 C23.3146,46.6661 22.3666,45.7171 22.3666,44.5471 C22.3666,43.3761 23.3146,42.4271 24.4856,42.4271 C25.6566,42.4271 26.6046,43.3761 26.6046,44.5471 C26.6046,45.7171 25.6566,46.6661 24.4856,46.6661 M34.6336,41.5801 L12.1936,41.5801 L12.1936,45.8511 C12.1936,46.7681 12.9396,47.5141 13.8566,47.5141 L35.1136,47.5141 C36.0316,47.5141 36.7776,46.7681 36.7776,45.8511 L36.7776,41.5801 L34.6336,41.5801" id="Fill-41"></path>
                    <path d="M38.4727,45.8514 C38.4727,46.4554 38.3127,47.0234 38.0307,47.5134 L46.5397,47.5134 C47.2327,47.5134 47.7977,46.9424 47.7977,46.2404 L47.7977,43.2754 L38.4727,43.2754 L38.4727,45.8514" id="Fill-42"></path>
                    <path d="M46.5394,7.6718 L38.4724,7.6718 L38.4724,8.5198 L41.0154,8.5198 C41.4844,8.5198 41.8634,8.8988 41.8634,9.3668 C41.8634,9.8348 41.4844,10.2148 41.0154,10.2148 L38.4724,10.2148 L38.4724,11.0628 L47.7974,11.0628 L47.7974,8.9448 C47.7974,8.2428 47.2324,7.6718 46.5394,7.6718" id="Fill-43"></path>
                    <path d="M38.898,41.155 L47.371,41.155 L47.371,13.184 L38.898,13.184 L38.898,41.155 Z M48.223,42.005 L38.048,42.005 L38.048,12.332 L48.223,12.332 L48.223,42.005 Z" id="Fill-44"></path>
                    <path d="M10.9402,47.5138 C10.6592,47.0238 10.4982,46.4548 10.4982,45.8518 L10.4982,43.2748 L1.0412,43.2748 L1.0412,46.2428 C1.0412,46.9438 1.6122,47.5138 2.3122,47.5138 L10.9402,47.5138" id="Fill-45"></path>
                    <path d="M1.599,41.155 L10.072,41.155 L10.072,13.184 L1.599,13.184 L1.599,41.155 Z M10.924,42.005 L0.749,42.005 L0.749,12.332 L10.924,12.332 L10.924,42.005 Z" id="Fill-46"></path>
                    <path d="M8.7769,10.2149 L8.0619,10.2149 C7.5929,10.2149 7.2139,9.8349 7.2139,9.3669 C7.2139,8.8989 7.5929,8.5199 8.0619,8.5199 L8.7769,8.5199 C9.2449,8.5199 9.6249,8.8989 9.6249,9.3669 C9.6249,9.8349 9.2449,10.2149 8.7769,10.2149 L8.7769,10.2149 Z M10.4989,7.7249 L2.3119,7.7249 C1.6119,7.7249 1.0419,8.2949 1.0419,8.9959 L1.0419,11.0629 L10.4989,11.0629 L10.4989,7.7249 Z" id="Fill-47"></path>
                </g>
            </g>
        </g>
    </g>
</svg>